<?xml version="1.0" standalone="no"?>
<!DOCTYPE svg PUBLIC "-//W3C//DTD SVG 1.1//EN" "http://www.w3.org/Graphics/SVG/1.1/DTD/svg11.dtd" >
<svg xmlns="http://www.w3.org/2000/svg">
<metadata></metadata>
<defs>
<font id="toyota_textitalic" horiz-adv-x="1216" >
<font-face units-per-em="2048" ascent="1638" descent="-410" />
<missing-glyph horiz-adv-x="368" />
<glyph unicode="&#xfb01;" horiz-adv-x="1155" d="M-68 -260q63 20 101.5 91t62.5 216l146 840h-154l23 139h155l21 109q16 86 48 154.5t86 116.5t132 74.5t186 26.5q113 0 198 -29.5t136 -66.5l-72 -115q-41 31 -110.5 54.5t-145.5 23.5q-70 0 -118.5 -13t-82.5 -44t-55.5 -83t-33.5 -132l-13 -76h607l-181 -1026h-176 l154 887h-428l-156 -887q-12 -76 -33.5 -133t-54.5 -102.5t-80 -78t-114 -57.5z" />
<glyph unicode="&#xfb02;" horiz-adv-x="1171" d="M-68 -260q63 20 101.5 91t62.5 216l146 840h-154l23 139h155l21 109q16 86 48 154.5t87 116.5t137 74.5t199 26.5q57 0 112.5 -10t104.5 -26.5t88 -38t63 -43.5l-237 -1389h-176l229 1329q-31 18 -85 31.5t-107 13.5q-68 0 -117 -12t-85 -44t-58.5 -84t-34.5 -132 l-13 -76h277l-23 -139h-278l-156 -889q-12 -74 -33.5 -131t-54.5 -102.5t-81 -78t-113 -57.5z" />
<glyph unicode="&#xfb03;" horiz-adv-x="1781" d="M-68 -260q63 20 101.5 91t62.5 216l146 840h-154l23 139h155l21 107q16 86 41.5 155.5t68.5 117.5t106.5 74.5t155.5 26.5q78 0 129.5 -19.5t81.5 -41.5l-69 -115q-23 16 -58.5 29.5t-87.5 13.5q-53 0 -85.5 -17.5t-54 -52t-35 -87t-25.5 -119.5l-13 -72h453l20 109 q16 86 48 154.5t86.5 116.5t132.5 74.5t186 26.5q113 0 198 -29.5t136 -66.5l-72 -115q-41 31 -110.5 54.5t-145.5 23.5q-70 0 -119 -13t-82.5 -44t-55 -83t-34.5 -132l-12 -76h606l-180 -1026h-176l154 887h-428l-156 -887q-12 -76 -33.5 -133t-54.5 -102.5t-80 -78 t-115 -57.5l-47 111q63 20 101 91t63 216l145 840h-452l-156 -887q-12 -76 -33.5 -133t-54.5 -102.5t-80 -78t-114 -57.5z" />
<glyph unicode="&#xfb04;" horiz-adv-x="1800" d="M-68 -260q63 20 101.5 91t62.5 216l146 840h-154l23 139h155l21 107q16 86 41.5 155.5t68.5 117.5t106.5 74.5t155.5 26.5q78 0 129.5 -19.5t81.5 -41.5l-69 -115q-23 16 -58.5 29.5t-87.5 13.5q-53 0 -85.5 -17.5t-54 -52t-35 -87t-25.5 -119.5l-13 -72h451l20 109 q16 86 48 154.5t87.5 116.5t137.5 74.5t198 26.5q57 0 112.5 -10t105 -26.5t88.5 -38t63 -43.5l-237 -1389h-177l230 1329q-31 18 -85 31.5t-108 13.5q-68 0 -117 -12t-84.5 -44t-58 -84t-35.5 -132l-12 -76h277l-23 -139h-279l-155 -889q-12 -74 -33.5 -131t-54.5 -102.5 t-81 -78t-114 -57.5l-47 111q63 20 101 91t63 216l145 840h-450l-156 -887q-12 -76 -33.5 -133t-54.5 -102.5t-80 -78t-114 -57.5z" />
<glyph horiz-adv-x="2048" />
<glyph horiz-adv-x="2048" />
<glyph unicode="&#xd;" horiz-adv-x="0" />
<glyph unicode=" "  horiz-adv-x="368" />
<glyph unicode="&#x09;" horiz-adv-x="368" />
<glyph unicode="&#xa0;" horiz-adv-x="368" />
<glyph unicode="!" horiz-adv-x="534" d="M27 88q0 70 37.5 114t97.5 44q55 0 84.5 -37t29.5 -86q0 -74 -40 -116t-97 -42q-53 0 -82.5 35t-29.5 88zM131 420l164 1057h199l-213 -1057h-150z" />
<glyph unicode="&#x22;" horiz-adv-x="657" d="M119 885l94 592h166l-123 -592h-137zM414 885l94 592h166l-123 -592h-137z" />
<glyph unicode="#" horiz-adv-x="1386" d="M35 412l22 147h244l123 371h-215l24 149h242l94 293h164l-94 -293h334l98 293h160l-96 -293h227l-25 -149h-256l-120 -371h223l-23 -147h-250l-106 -332h-162l105 332h-332l-109 -332h-164l109 332h-217zM465 559h336l121 371h-334z" />
<glyph unicode="$" d="M57 90l80 133q70 -43 157 -73.5t202 -30.5q68 0 126 20.5t101 57t68.5 89t25.5 115.5q0 47 -11 82t-41 67t-83 63.5t-139 72.5q-72 33 -131.5 64.5t-102.5 74.5t-66.5 100.5t-23.5 143.5q0 88 33 159.5t90 124t137 83t174 37.5l31 176h152l-31 -176q111 -10 184.5 -42 t112.5 -63l-76 -129q-47 31 -123 61.5t-201 30.5q-141 0 -217.5 -62.5t-76.5 -166.5q0 -49 14 -84t47 -64.5t88 -58.5t137 -68q74 -35 131.5 -71.5t97.5 -81.5t60.5 -103.5t20.5 -136.5q0 -86 -31 -163.5t-89.5 -139t-142.5 -102.5t-192 -52l-31 -170h-158l29 170 q-98 10 -183 40t-149 73z" />
<glyph unicode="%" horiz-adv-x="1726" d="M129 944q0 109 25.5 206t72.5 170t117 115t160 42q127 0 189.5 -74t62.5 -197q0 -113 -24.5 -211t-73 -171.5t-118 -115.5t-157.5 -42q-254 0 -254 278zM266 0l1016 1458h182l-1015 -1458h-183zM281 954q0 -86 23.5 -128t82.5 -42q63 0 105.5 48.5t67 115t34.5 137 t10 115.5q0 158 -106 158q-63 0 -105.5 -46t-67 -110.5t-34.5 -133.5t-10 -114zM971 244q0 113 25.5 211t72.5 171.5t116.5 115.5t160.5 42q127 0 189 -73.5t62 -196.5q0 -113 -24.5 -211t-71.5 -172t-116.5 -116t-161.5 -42q-133 0 -192.5 75t-59.5 196zM1122 250 q0 -78 27 -118t88 -40t101 48t63.5 115t34 137.5t10.5 115.5q0 158 -107 158q-63 0 -105 -48.5t-66.5 -115t-35 -137t-10.5 -115.5z" />
<glyph unicode="&#x26;" horiz-adv-x="1353" d="M51 303q0 100 37 185t97.5 157t136 130.5t155.5 105.5q-29 57 -50 125.5t-21 146.5q0 61 22.5 124.5t70.5 115t124.5 83t185.5 31.5q102 0 174 -32.5t113 -73.5l-78 -115q-39 31 -95.5 55.5t-123.5 24.5q-61 0 -103.5 -15.5t-68 -42t-36.5 -59t-11 -67.5 q0 -66 24.5 -133.5t61.5 -135.5l256 -462l243 303l117 -80l-285 -363l164 -295l-164 -53l-123 215q-35 -35 -77.5 -72.5t-98 -69.5t-123 -52.5t-147.5 -20.5q-104 0 -176 30t-117 78t-64.5 108.5t-19.5 123.5zM236 334q0 -92 51 -154.5t164 -62.5q104 0 192 59.5t154 140.5 l-248 437q-145 -92 -229 -189.5t-84 -230.5z" />
<glyph unicode="'" horiz-adv-x="362" d="M119 885l94 592h166l-123 -592h-137z" />
<glyph unicode="(" horiz-adv-x="669" d="M92 414q0 360 160 641.5t450 492.5l91 -112q-111 -84 -206 -188.5t-165 -230.5t-109 -272.5t-39 -312.5q0 -66 6.5 -135.5t29 -150t64.5 -173t113 -200.5l-120 -101q-70 84 -122 178.5t-86 190.5t-50.5 191.5t-16.5 181.5z" />
<glyph unicode=")" horiz-adv-x="669" d="M-174 -215q111 82 206 187.5t164.5 231.5t108.5 272.5t39 311.5q0 63 -6 134t-28.5 152t-64.5 173t-114 201l121 100q70 -84 122 -178t86 -190.5t50 -191.5t16 -181q0 -360 -159.5 -642t-450.5 -493z" />
<glyph unicode="*" horiz-adv-x="882" d="M123 1116l47 160l270 -121l-24 322h162l-23 -322l268 117l49 -156l-284 -67l205 -238l-134 -96l-163 260l-164 -262l-133 98l204 238z" />
<glyph unicode="+" d="M150 614v164h374v396h166v-396h375v-164h-375v-395h-166v395h-374z" />
<glyph unicode="," horiz-adv-x="389" d="M-127 -266l164 481l178 -45l-227 -471z" />
<glyph unicode="-" horiz-adv-x="866" d="M123 557l31 174h577l-31 -174h-577z" />
<glyph unicode="." horiz-adv-x="485" d="M20 82q0 74 38 119t98 45q55 0 84.5 -37t29.5 -86q0 -74 -40 -116t-97 -42q-53 0 -83 35t-30 82z" />
<glyph unicode="/" horiz-adv-x="868" d="M-154 -160l947 1725h188l-948 -1725h-187z" />
<glyph unicode="0" d="M90 471q0 113 17.5 231.5t52.5 231.5t88 211t125.5 172t164 117t203.5 43q104 0 178 -39t119 -104.5t65.5 -153.5t20.5 -187q0 -176 -37.5 -357t-115.5 -328.5t-198 -241t-284 -93.5q-123 0 -199.5 41t-121.5 110t-61.5 159t-16.5 188zM283 469q0 -166 47 -258t174 -92 q88 0 167 72.5t136 192.5t91 275.5t34 321.5q0 174 -45 262t-166 88q-96 0 -177 -72.5t-139.5 -192.5t-90 -275.5t-31.5 -321.5z" />
<glyph unicode="1" d="M152 0l26 145h318l192 1063q2 10 4 23.5t2 17.5q0 16 -10 17q-8 0 -15 -4.5t-30 -20.5l-272 -201l-74 125l323 246q39 31 75 48.5t87 17.5t82 -23.5t31 -77.5q0 -8 -4 -34.5t-6 -36.5l-211 -1160h297l-27 -145h-788z" />
<glyph unicode="2" d="M27 129q0 47 17 84t73 90l469 418q76 72 131 125t89 100t50 93t16 104q0 86 -54 135t-169 49q-59 0 -115.5 -14.5t-106.5 -36t-89 -45t-64 -41.5l-75 117q41 33 93 63.5t112.5 54t127 38t138.5 14.5q100 0 175 -25t124 -68t72.5 -101t23.5 -126q0 -90 -29.5 -162.5 t-77 -136t-107.5 -120t-122 -111.5l-483 -424q-20 -18 -21 -37q0 -18 33 -19h723l-27 -147h-774q-86 0 -119.5 39t-33.5 90z" />
<glyph unicode="3" d="M14 100l82 136q66 -49 156 -81t180 -32t157.5 27.5t114 75.5t70 115t23.5 144q0 121 -65.5 184.5t-211.5 63.5h-106l20 123l463 399q20 18 21 35q0 20 -25 21h-639l29 147h667q154 0 154 -127q0 -47 -24.5 -90t-86.5 -94l-350 -289q94 -6 160.5 -35.5t107.5 -80 t59.5 -117t18.5 -142.5q0 -80 -29.5 -170t-94 -164.5t-168 -125t-253.5 -50.5q-133 0 -241.5 35t-188.5 92z" />
<glyph unicode="4" d="M90 494q0 57 26.5 102t80.5 104l706 758h172l-170 -934h201l-27 -147h-198l-70 -377h-176l67 377h-450q-162 0 -162 117zM285 557q0 -33 39 -33h405l121 668l-539 -580q-10 -12 -18 -24.5t-8 -30.5z" />
<glyph unicode="5" d="M10 113l78 131q66 -47 156 -84t194 -37q90 0 159 31.5t115 84t69.5 121t23.5 142.5q0 129 -58.5 191.5t-187.5 62.5q-72 0 -144.5 -20.5t-125.5 -47.5l-80 64l180 706h690l-26 -147h-541l-115 -461q111 47 228 47q74 0 140 -22.5t116.5 -67.5t80 -113.5t29.5 -161.5 q0 -115 -35.5 -216t-104.5 -177t-170 -121t-230 -45q-145 0 -255 38t-186 102z" />
<glyph unicode="6" d="M145 453q0 188 47.5 372.5t139.5 328.5t226 233.5t308 89.5q117 0 194 -30t118 -63l-80 -124q-47 35 -103.5 54t-142.5 19q-90 0 -163 -38t-130 -103.5t-99 -156.5t-69 -195q49 33 136 59.5t192 26.5q86 0 150.5 -32t107.5 -84t64.5 -122t21.5 -145q0 -129 -41 -234.5 t-109.5 -180.5t-161 -115t-194.5 -40q-104 0 -182 34t-129 96.5t-76 151.5t-25 198zM334 434q0 -150 51 -230.5t182 -80.5q63 0 118.5 25.5t96.5 75.5t64.5 125t23.5 175q0 125 -57 190.5t-168 65.5q-78 0 -153.5 -24.5t-124.5 -57.5q-16 -59 -24.5 -130.5t-8.5 -133.5z" />
<glyph unicode="7" d="M207 1311l26 147h828q63 0 90 -21.5t27 -64.5q0 -45 -18.5 -84t-47.5 -88l-696 -1200h-199l727 1249q6 10 10 18.5t4 20.5q0 23 -30 23h-721z" />
<glyph unicode="8" d="M94 330q0 84 30 150.5t77 118.5t105.5 90t115.5 67q-29 16 -57.5 41.5t-52 62.5t-39 84t-15.5 109q0 80 32 155.5t93 135t149.5 96.5t198.5 37q90 0 163 -25t123 -69t77.5 -103t27.5 -129q0 -78 -25.5 -141.5t-68.5 -112.5t-98.5 -85t-112.5 -58q51 -25 96 -56.5 t78 -72.5t51.5 -94.5t18.5 -122.5q0 -90 -36 -171t-103.5 -141.5t-163.5 -96.5t-217 -36q-211 0 -329 95.5t-118 271.5zM287 350q0 -111 68.5 -176t203.5 -65t222 71.5t87 210.5q0 51 -13 93t-47 78t-92.5 65.5t-148.5 60.5q-127 -41 -203.5 -125t-76.5 -213zM440 1065 q0 -98 63 -156.5t165 -91.5q55 16 103 43t84 66t57.5 92t21.5 121q0 92 -56.5 143t-160.5 51q-68 0 -119 -22.5t-87 -59.5t-53.5 -86t-17.5 -100z" />
<glyph unicode="9" d="M76 70l90 123q41 -29 103.5 -52.5t154.5 -23.5q96 0 169 40t126 109.5t87 161.5t54 195q-25 -14 -59.5 -28.5t-76.5 -25t-88 -17.5t-91 -7q-172 0 -268.5 104.5t-96.5 292.5q0 129 43 228.5t114 168t161 103.5t184 35q209 0 312.5 -124t103.5 -339q0 -150 -19.5 -290 t-60.5 -261t-102.5 -219.5t-147.5 -163.5q-66 -51 -155 -79t-195 -28q-117 0 -203 29t-139 68zM373 954q0 -139 54 -204.5t177 -65.5q74 0 147 20.5t132 59.5q4 20 9 50t9 63.5t6 68.5t2 66q0 154 -54 234.5t-189 80.5q-59 0 -112.5 -24.5t-93.5 -72.5t-63.5 -118 t-23.5 -158z" />
<glyph unicode=":" horiz-adv-x="485" d="M20 82q0 74 38 119t98 45q55 0 84.5 -37t29.5 -86q0 -74 -40 -116t-97 -42q-53 0 -83 35t-30 82zM153 879q0 74 38 119t98 45q55 0 84.5 -37t29.5 -86q0 -74 -40 -116t-97 -42q-53 0 -83 35t-30 82z" />
<glyph unicode=";" horiz-adv-x="389" d="M-127 -266l164 481l178 -45l-227 -471zM94 879q0 74 38 119t98 45q55 0 84.5 -37t29.5 -86q0 -74 -40 -116t-97 -42q-53 0 -83 35t-30 82z" />
<glyph unicode="&#x3c;" d="M131 690q0 84 55.5 139.5t155.5 98.5l647 280l94 -139l-700 -301q-70 -29 -70 -76q0 -31 19.5 -46t54.5 -30l696 -288l-108 -142l-647 275q-98 41 -147.5 89t-49.5 140z" />
<glyph unicode="=" horiz-adv-x="1224" d="M154 430v164h915v-164h-915zM154 799v164h915v-164h-915z" />
<glyph unicode="&#x3e;" d="M131 326l698 303q70 29 70 76q0 31 -19.5 46t-54.5 29l-694 287l109 141l647 -274q98 -41 147 -89t49 -140q0 -84 -55 -139.5t-156 -98.5l-647 -281z" />
<glyph unicode="?" horiz-adv-x="927" d="M123 1339q86 70 201.5 116t244.5 46q92 0 160 -22.5t112 -62.5t65.5 -94t21.5 -118q0 -74 -19.5 -133t-52.5 -110.5t-76 -93.5t-90 -79l-86 -67q-74 -59 -121 -108.5t-61 -127.5l-12 -65h-146l21 106q16 96 68.5 159t115.5 116l113 94q86 72 122.5 135.5t36.5 143.5 q0 82 -50 130t-161 48q-98 0 -181 -35t-161 -90zM158 82q0 74 37.5 119t97.5 45q55 0 85 -37t30 -86q0 -74 -40.5 -116t-97.5 -42q-53 0 -82.5 35t-29.5 82z" />
<glyph unicode="@" horiz-adv-x="1875" d="M59 287q0 246 83 448.5t223.5 347t323.5 223t386 78.5q150 0 275 -43t214 -125.5t138 -204.5t49 -278q0 -178 -51 -319.5t-135 -240.5t-191.5 -151.5t-218.5 -52.5l-104 94q-55 -41 -122 -71.5t-141 -30.5q-145 0 -223 92t-78 260q0 131 40 250t112 208t171 141.5 t218 52.5q96 0 169 -20.5t118 -43.5l-129 -729l53 -68q76 12 135.5 67.5t100.5 139.5t63.5 189.5t22.5 220.5q0 244 -128 381t-380 137q-168 0 -314.5 -70.5t-254 -195.5t-170 -296t-62.5 -370q0 -285 161.5 -444.5t483.5 -159.5q133 0 228.5 27.5t172.5 66.5l48 -125 q-78 -39 -198 -74.5t-280 -35.5q-190 0 -340.5 47t-254 139t-159 227.5t-55.5 311.5zM668 344q0 -104 38.5 -173t116.5 -69q66 0 106 20.5t87 59.5l112 631q-23 10 -50 16.5t-70 6.5q-66 0 -127.5 -36t-108.5 -100.5t-75.5 -155.5t-28.5 -200z" />
<glyph unicode="A" horiz-adv-x="1234" d="M-82 6l610 1327q43 92 95.5 132t140.5 40q49 0 83 -9t56.5 -32.5t35.5 -65.5t19 -110l134 -1286l-195 -31l-53 510h-525l-233 -510zM385 635h442l-65 637q-4 45 -9 58t-22 13q-16 0 -26.5 -15t-26.5 -52z" />
<glyph unicode="B" horiz-adv-x="1183" d="M39 0l262 1477h422q172 0 280.5 -80t108.5 -238q0 -131 -68.5 -228t-185.5 -161q96 -41 150.5 -116.5t54.5 -174.5q0 -125 -43 -216t-119 -149.5t-176 -86t-217 -27.5h-469zM248 145h291q70 0 131 18.5t106 56.5t70.5 97.5t25.5 141.5q0 61 -26.5 104t-67.5 69.5t-90 39 t-94 12.5h-252zM369 834h256q63 0 116.5 22.5t93 62t62.5 94t23 117.5q0 98 -62.5 149.5t-191.5 51.5h-209z" />
<glyph unicode="C" horiz-adv-x="1095" d="M86 555q0 223 61.5 400.5t164 300t234.5 187t275 64.5q98 0 180 -26.5t146 -73.5l-76 -127q-55 39 -121.5 57.5t-128.5 18.5q-121 0 -218 -61.5t-166.5 -170t-106.5 -256t-37 -317.5q0 -90 15.5 -168t51 -137.5t95 -93t149.5 -33.5q82 0 157 24.5t169 77.5l51 -139 q-100 -59 -197.5 -89t-216.5 -30q-139 0 -231 46t-147.5 126t-79 187.5t-23.5 232.5z" />
<glyph unicode="D" horiz-adv-x="1335" d="M39 0l262 1477h363q156 0 266 -38t180 -113t101.5 -185.5t31.5 -253.5q0 -176 -51 -337t-148.5 -283t-241 -194.5t-327.5 -72.5h-436zM252 154h223q125 0 228.5 50t177 143t114.5 227.5t41 302.5q0 127 -24.5 213t-73.5 139t-124 75.5t-175 22.5h-178z" />
<glyph unicode="E" horiz-adv-x="1052" d="M39 0l262 1477h803l-29 -152h-614l-84 -477h473l-29 -156h-473l-96 -536h655l-26 -156h-842z" />
<glyph unicode="F" horiz-adv-x="1021" d="M39 0l262 1477h823l-28 -152h-635l-84 -477h473l-29 -156h-473l-123 -692h-186z" />
<glyph unicode="G" horiz-adv-x="1255" d="M86 555q0 217 58.5 393t160 301t238.5 191.5t293 66.5q102 0 187 -29.5t140 -74.5l-80 -129q-45 35 -111.5 58.5t-148.5 23.5q-119 0 -216 -59.5t-166.5 -167t-108.5 -255t-39 -323.5q0 -90 15.5 -168t51 -137.5t94 -93t144.5 -33.5t153.5 20.5t116.5 48.5l74 430h-262 l29 152h440l-119 -666q-35 -25 -84 -50t-107.5 -44.5t-123 -33t-131.5 -13.5q-143 0 -238.5 43t-153 122t-82 187.5t-24.5 239.5z" />
<glyph unicode="H" horiz-adv-x="1318" d="M39 0l262 1477h186l-110 -629h608l111 629h186l-262 -1477h-186l122 692h-608l-123 -692h-186z" />
<glyph unicode="I" horiz-adv-x="524" d="M39 0l262 1477h186l-262 -1477h-186z" />
<glyph unicode="J" horiz-adv-x="876" d="M-102 45l71 139q49 -29 104.5 -46t127.5 -17q70 0 114.5 18.5t72.5 53t44.5 87t28.5 119.5l192 1078h187l-195 -1104q-20 -113 -55 -191t-88 -127t-126 -70.5t-167 -21.5q-117 0 -194.5 26.5t-116.5 55.5z" />
<glyph unicode="K" horiz-adv-x="1138" d="M39 0l262 1477h186l-114 -646h88q47 0 69.5 9.5t44.5 38.5l500 614l166 -37l-559 -692l336 -741l-193 -41l-284 639q-16 39 -37 47t-49 8h-109l-121 -676h-186z" />
<glyph unicode="L" horiz-adv-x="1054" d="M39 0l262 1477h186l-233 -1321h688l-29 -156h-874z" />
<glyph unicode="M" horiz-adv-x="1552" d="M4 0l336 1477h190l203 -758q10 -35 17.5 -46t21.5 -11t26.5 12t32.5 45l465 758h179l-195 -1477h-184l153 1116l-303 -485q-47 -74 -91 -119t-122 -45q-84 0 -114.5 43t-53.5 123l-139 495l-244 -1128h-178z" />
<glyph unicode="N" horiz-adv-x="1333" d="M39 0l260 1477h190l371 -1254q8 -29 11 -38t14 -9q10 0 12 7t6 24l227 1270h166l-225 -1272q-23 -123 -75 -171t-142 -48q-55 0 -96 28.5t-68 118.5l-289 991l-196 -1124h-166z" />
<glyph unicode="O" horiz-adv-x="1368" d="M78 524q0 203 52 381t147.5 312.5t227.5 212t292 77.5q123 0 215 -42t151.5 -116.5t89 -177t29.5 -225.5q0 -209 -51 -388t-146.5 -311t-229.5 -208t-302 -76q-127 0 -217 42t-147.5 117t-84 177t-26.5 225zM283 510q0 -182 71.5 -287.5t216.5 -105.5q123 0 217.5 69.5 t159 186t97 269.5t32.5 319q0 182 -71.5 287.5t-221.5 105.5q-123 0 -217 -70t-157.5 -186.5t-95 -269t-31.5 -318.5z" />
<glyph unicode="P" horiz-adv-x="1155" d="M39 0l262 1477h414q186 0 297.5 -84t111.5 -265q0 -117 -35.5 -215t-107.5 -169.5t-179.5 -111.5t-248.5 -40h-223l-105 -592h-186zM356 745h230q76 0 138 20.5t108.5 62.5t72 109t25.5 159q0 131 -67.5 182t-203.5 51h-198z" />
<glyph unicode="Q" horiz-adv-x="1376" d="M86 524q0 203 52 381t147.5 312.5t227.5 212t292 77.5q123 0 215 -42t151.5 -116.5t89 -177t29.5 -225.5q0 -147 -26.5 -281.5t-75.5 -248t-120 -202.5t-161 -148l183 -224l-142 -110l-211 256q-41 -10 -85 -17.5t-91 -7.5q-127 0 -217 42t-147.5 117t-84 177t-26.5 225z M291 510q0 -182 72 -287.5t217 -105.5q123 0 217 69.5t158.5 186t97 269.5t32.5 319q0 182 -71.5 287.5t-220.5 105.5q-123 0 -217.5 -70t-158 -186.5t-95 -269t-31.5 -318.5z" />
<glyph unicode="R" horiz-adv-x="1165" d="M39 0l262 1477h404q84 0 156.5 -17.5t126.5 -55.5t85 -99.5t31 -149.5q0 -104 -28.5 -184t-79 -139.5t-117 -98.5t-142.5 -63q39 -27 58.5 -57.5t38.5 -80.5l192 -520l-186 -43l-195 520q-16 41 -31.5 69t-38 44t-55.5 23.5t-80 7.5h-102l-113 -633h-186zM362 784h197 q74 0 138.5 20.5t111.5 61.5t73.5 103.5t26.5 148.5q0 61 -18.5 102.5t-53 66t-82.5 33.5t-108 9h-186z" />
<glyph unicode="S" horiz-adv-x="1124" d="M-14 84l84 139q72 -45 159.5 -75.5t206.5 -30.5q72 0 134.5 21.5t109.5 59.5t73.5 91t26.5 117q0 49 -12 86.5t-44 70.5t-87 63.5t-141 65.5q-72 29 -133.5 60.5t-107.5 75.5t-72.5 104.5t-26.5 146.5q0 94 36.5 173t105.5 136.5t165 88t215 30.5q150 0 251 -36.5 t150 -75.5l-78 -125q-47 33 -130 61.5t-209 28.5q-145 0 -227.5 -69.5t-82.5 -180.5q0 -53 13.5 -89t46 -65.5t90 -58.5t143.5 -66q160 -68 245 -152.5t85 -221.5q0 -104 -34 -195.5t-102.5 -157t-172 -103.5t-240.5 -38q-150 0 -259.5 37t-180.5 84z" />
<glyph unicode="T" horiz-adv-x="1001" d="M102 1325l29 152h993l-28 -152h-404l-235 -1325h-187l236 1325h-404z" />
<glyph unicode="U" horiz-adv-x="1312" d="M104 342q0 104 25 238l160 897h186l-151 -850q-14 -80 -23.5 -147.5t-9.5 -123.5q0 -119 52 -179t189 -60q94 0 161 29.5t111 89t72.5 147.5t49.5 205l159 889h187l-158 -891q-27 -147 -68.5 -263t-111.5 -196t-172.5 -122t-247.5 -42q-115 0 -192.5 24.5t-126 73 t-70 119t-21.5 162.5z" />
<glyph unicode="V" horiz-adv-x="1193" d="M133 1464l195 33l131 -1300q4 -45 9 -58.5t19 -13.5q16 0 26.5 15.5t29.5 56.5l596 1300l168 -35l-615 -1327q-43 -92 -95 -132t-140 -40q-49 0 -83 9.5t-56.5 33t-36 65.5t-19.5 109z" />
<glyph unicode="W" horiz-adv-x="1783" d="M152 1458l194 33l57 -1294q0 -41 7.5 -56.5t23.5 -15.5t25.5 14.5t25.5 57.5l441 1280h159l54 -1280q2 -43 5 -57.5t21 -14.5q16 0 25.5 15.5t23.5 52.5l474 1298l165 -33l-475 -1304q-20 -55 -41.5 -92t-49 -58.5t-63.5 -31t-83 -9.5q-55 0 -91 12.5t-57.5 38t-31 66.5 t-11.5 100l-32 791l-277 -813q-23 -59 -47.5 -97t-55 -59.5t-66.5 -30t-79 -8.5q-102 0 -141 50t-43 167z" />
<glyph unicode="X" horiz-adv-x="1159" d="M-96 37l526 721l-264 682l178 57l221 -586q8 -20 14.5 -28.5t18.5 -8.5q20 0 43 33l424 596l156 -53l-496 -688l285 -729l-185 -53l-237 626q-14 35 -29 35q-14 0 -39 -33l-461 -628z" />
<glyph unicode="Y" horiz-adv-x="1073" d="M129 1458l184 37l172 -735q8 -31 14.5 -41t16.5 -10t21.5 11t29.5 42l441 729l163 -39l-462 -750q-27 -41 -45.5 -66.5t-34 -39.5t-28.5 -20.5t-26 -8.5l-98 -567h-188l102 571q-35 8 -53.5 52.5t-34.5 113.5z" />
<glyph unicode="Z" horiz-adv-x="1095" d="M-31 117q0 59 30 105t71 100l804 1003h-669l28 152h914l-21 -113l-938 -1157q-14 -16 -18 -23.5t-4 -17.5q0 -14 27 -14h739l-27 -152h-794q-78 0 -110 31.5t-32 85.5z" />
<glyph unicode="[" horiz-adv-x="665" d="M-20 -297l329 1815h459l-27 -140h-280l-277 -1534h291l-26 -141h-469z" />
<glyph unicode="\" horiz-adv-x="749" d="M123 1565h176l324 -1725h-177z" />
<glyph unicode="]" horiz-adv-x="665" d="M-143 -297l26 139h279l276 1534h-291l27 142h469l-330 -1815h-456z" />
<glyph unicode="^" horiz-adv-x="913" d="M51 782l309 516q33 55 58.5 94.5t51.5 64t55.5 35.5t70.5 11t67.5 -11t43 -35.5t29 -63.5t24.5 -95l123 -516l-152 -59l-119 565q-8 37 -14 51.5t-27 14.5q-16 0 -27.5 -14.5t-33.5 -51.5l-324 -565z" />
<glyph unicode="_" horiz-adv-x="983" d="M-147 0h1026v-162h-1026v162z" />
<glyph unicode="`" horiz-adv-x="1024" d="M350 1544l156 86l170 -387l-101 -49z" />
<glyph unicode="a" horiz-adv-x="1081" d="M61 338q0 154 44.5 287t126 230t198.5 152.5t260 55.5q100 0 174 -20.5t107 -34.5l-142 -813l70 -152l-147 -76l-86 146q-66 -63 -136.5 -106.5t-167.5 -43.5q-145 0 -223 95.5t-78 279.5zM248 367q0 -80 12 -130.5t33.5 -79t53.5 -38.5t71 -10q37 0 78 16t79.5 49 t67.5 82t41 117l96 542q-20 8 -46.5 13.5t-67.5 5.5q-88 0 -165 -43t-133.5 -120t-88 -180.5t-31.5 -223.5z" />
<glyph unicode="b" horiz-adv-x="1110" d="M53 18l260 1489h179l-101 -573q47 51 122 90t171 39q68 0 123 -24.5t95 -68.5t62.5 -107.5t22.5 -141.5q0 -176 -44 -316.5t-127 -238.5t-200.5 -150.5t-267.5 -52.5q-43 0 -86 5t-83 13.5t-72.5 18.5t-53.5 18zM244 111q25 -8 56.5 -13.5t64.5 -5.5q98 0 179 49t137 131 t87 188.5t31 221.5q0 125 -48.5 179t-129.5 54q-41 0 -85 -15t-83 -47t-70 -82t-43 -118z" />
<glyph unicode="c" horiz-adv-x="892" d="M72 389q0 156 42 280t116.5 212t179 135t229.5 47q84 0 152.5 -22.5t111.5 -51.5l-65 -112q-35 20 -88.5 36.5t-118.5 16.5q-86 0 -154.5 -40t-118 -109.5t-75 -165t-25.5 -203.5q0 -168 58.5 -239t166.5 -71q59 0 123 16.5t109 39.5l37 -125q-51 -27 -125 -48.5 t-168 -21.5q-199 0 -293 115t-94 311z" />
<glyph unicode="d" horiz-adv-x="1093" d="M61 338q0 166 47.5 299t132.5 228.5t200.5 146.5t254.5 51q35 0 59.5 -3t61.5 -11l82 458h172l-229 -1312l69 -152l-147 -76l-86 146q-53 -59 -128 -104.5t-183 -45.5q-143 0 -224.5 97.5t-81.5 277.5zM248 375q0 -127 34.5 -196.5t137.5 -69.5q39 0 83 18t83 52t68.5 83 t41.5 111l97 547q-23 6 -57 10t-62 4q-96 0 -175 -46t-134.5 -124t-86 -178.5t-30.5 -210.5z" />
<glyph unicode="e" horiz-adv-x="964" d="M72 358q0 135 39 262.5t110.5 225.5t174 157.5t231.5 59.5q80 0 134 -19.5t87 -50t46 -71.5t13 -84q0 -94 -38 -168t-104.5 -124t-157.5 -77t-197 -27q-29 0 -66 1.5t-86 5.5q-2 -18 -2 -37v-29q0 -135 55.5 -207t169.5 -72q76 0 130.5 20.5t101.5 43.5l41 -129 q-55 -29 -127 -52.5t-168 -23.5q-104 0 -178 32t-120 85t-67.5 126t-21.5 152zM276 567q23 -2 61 -3t79 -1q61 0 118.5 16.5t101.5 48t70.5 78t26.5 105.5q0 119 -135 119q-61 0 -112.5 -31t-93.5 -82t-72 -116.5t-44 -133.5z" />
<glyph unicode="f" horiz-adv-x="655" d="M-68 -260q63 20 101.5 91t62.5 216l146 840h-154l23 139h155l21 107q16 86 41.5 155.5t68.5 117.5t106.5 74.5t155.5 26.5q78 0 129.5 -19.5t81.5 -41.5l-69 -115q-23 16 -58.5 29.5t-87.5 13.5q-53 0 -85.5 -17.5t-54 -52t-35 -87t-25.5 -119.5l-13 -72h277l-23 -139 h-278l-156 -887q-12 -76 -33.5 -133t-54.5 -102.5t-80 -78t-114 -57.5z" />
<glyph unicode="g" horiz-adv-x="1087" d="M0 -377l66 129q53 -29 118.5 -50t143.5 -21q76 0 127 17t84.5 51t52 85t31.5 121l24 137q-41 -49 -108.5 -89t-171.5 -40q-141 0 -223.5 96.5t-82.5 284.5q0 176 46.5 310t121 225.5t171 137.5t194.5 46q92 0 150.5 -36t89.5 -79l67 113l135 -66l-86 -180l-149 -860 q-37 -215 -148.5 -315.5t-322.5 -100.5q-100 0 -188.5 24.5t-141.5 59.5zM248 369q0 -125 37 -192.5t131 -67.5q37 0 80 15t84 48t73.5 84t44.5 123l80 446q-16 41 -63 77t-113 36q-61 0 -124.5 -38t-115 -110.5t-83 -179t-31.5 -241.5z" />
<glyph unicode="h" horiz-adv-x="1130" d="M45 0l268 1507h174l-104 -583q25 23 57.5 47t73.5 44.5t90 34t107 13.5q135 0 197.5 -75t62.5 -191q0 -29 -5 -80t-12 -86l-110 -631h-176l102 586q2 12 6 36.5t8 52t7.5 54.5t3.5 43q0 68 -33 104.5t-111 36.5q-53 0 -105 -19.5t-96 -55t-75 -88t-43 -117.5l-111 -633 h-176z" />
<glyph unicode="i" horiz-adv-x="520" d="M57 0l156 891h-119l25 135h295l-181 -1026h-176zM248 1337q0 68 40 112t99 44q53 0 80 -40t27 -87q0 -68 -42.5 -108.5t-99.5 -40.5q-53 0 -78.5 36.5t-25.5 83.5z" />
<glyph unicode="j" horiz-adv-x="509" d="M-391 -406l65 125q27 -16 67 -27t91 -11q53 0 88 20t57.5 57t37 87.5t24.5 109.5l186 1071h178l-194 -1106q-14 -84 -40 -153.5t-69 -121t-107.5 -79t-156.5 -27.5q-72 0 -132 15.5t-95 39.5zM238 1337q0 68 39.5 112t99.5 44q53 0 79.5 -40t26.5 -87q0 -68 -42 -108.5 t-99 -40.5q-53 0 -78.5 36.5t-25.5 83.5z" />
<glyph unicode="k" horiz-adv-x="966" d="M45 0l268 1507h174l-153 -866h47q29 0 41 7t37 34l344 367l153 -43l-387 -420l285 -563l-180 -46l-225 463q-18 37 -37 49.5t-50 12.5h-53l-88 -502h-176z" />
<glyph unicode="l" horiz-adv-x="509" d="M47 0l240 1372h-121l24 135h297l-264 -1507h-176z" />
<glyph unicode="m" horiz-adv-x="1619" d="M45 0l145 827l-49 162l148 72l65 -150q27 27 61 54.5t72.5 49t81.5 35t88 13.5q109 0 165.5 -46t78.5 -110q20 23 52 50.5t72 51t86 39t95 15.5q74 0 123 -20.5t79 -56.5t43 -83t13 -98q0 -39 -6 -86t-14 -88l-111 -631h-176l107 608q6 35 13 82t7 74q0 68 -26.5 108.5 t-98.5 40.5q-49 0 -93 -20.5t-80 -56t-60.5 -83.5t-32.5 -102l-115 -651h-176l107 608q2 12 6 35t7 46.5t5 45t2 31.5q0 59 -23.5 103t-95.5 44q-37 0 -79 -15t-81.5 -47t-70.5 -82t-43 -118l-115 -651h-176z" />
<glyph unicode="n" horiz-adv-x="1130" d="M45 0l145 827l-49 162l148 72l67 -156q23 27 55.5 54.5t75.5 50t97.5 38t120.5 15.5q70 0 119.5 -19.5t82.5 -54.5t48.5 -82t15.5 -102q0 -18 -2 -44t-5 -53.5t-6.5 -54t-7.5 -47.5l-108 -606h-176l104 584q2 18 7 44.5t8 55.5t6.5 53.5t3.5 40.5q0 135 -144 135 q-59 0 -112.5 -21.5t-96.5 -59t-71.5 -92t-40.5 -122.5l-109 -618h-176z" />
<glyph unicode="o" horiz-adv-x="1093" d="M55 373q0 174 46 304t121 216t173.5 128t202.5 42q98 0 168 -34t114 -91t64.5 -131t20.5 -154q0 -174 -45.5 -304t-120 -216t-173 -128t-204.5 -42q-98 0 -168 34t-114 91t-64.5 131t-20.5 154zM240 350q0 -117 48 -185.5t152 -68.5q86 0 150.5 50.5t106.5 132t62.5 186 t20.5 211.5q0 121 -51 187.5t-149 66.5q-86 0 -150.5 -50.5t-106.5 -132t-62.5 -186t-20.5 -211.5z" />
<glyph unicode="p" horiz-adv-x="1107" d="M-33 -446l223 1273l-49 162l148 72l67 -150q49 59 135.5 105.5t192.5 46.5q135 0 218 -94.5t83 -270.5q0 -178 -47 -314t-128 -228.5t-190.5 -140.5t-232.5 -48q-88 0 -166 23l-78 -436h-176zM244 119q27 -8 64.5 -15.5t78.5 -7.5q78 0 151.5 35t131 106.5t92.5 182 t35 262.5q0 70 -11.5 115t-34 71.5t-55 36.5t-75.5 10q-45 0 -90.5 -17t-85 -51t-68.5 -86t-41 -120z" />
<glyph unicode="q" horiz-adv-x="1093" d="M61 336q0 172 49.5 307t135.5 228.5t199.5 142.5t242.5 49q104 0 177 -29.5t114 -52.5l-250 -1427h-178l94 538q-51 -51 -112.5 -90t-157.5 -39q-156 0 -235 100.5t-79 272.5zM248 360q0 -133 41 -192t131 -59q41 0 85 17t83 51t68.5 86t41.5 120l93 528q-18 8 -49 15.5 t-68 7.5q-86 0 -164 -40t-136.5 -113.5t-92 -180t-33.5 -240.5z" />
<glyph unicode="r" horiz-adv-x="731" d="M61 0l156 891h-119l25 135h248l8 -133q47 61 120.5 103t164.5 42q43 0 69.5 -5t48.5 -15l-73 -170q-18 10 -44 15t-61 5q-37 0 -78 -13t-75.5 -40t-61.5 -66.5t-35 -93.5l-116 -655h-177z" />
<glyph unicode="s" horiz-adv-x="858" d="M-23 49l56 123q59 -33 128.5 -53.5t149.5 -20.5q106 0 168 49.5t62 135.5q0 33 -8.5 58.5t-30 47t-58 39.5t-92.5 39q-57 20 -103 44t-79 54.5t-51.5 73.5t-18.5 102q0 154 107.5 238t286.5 84q88 0 171 -23.5t130 -54.5l-66 -121q-41 23 -102.5 42.5t-124.5 19.5 q-111 0 -170.5 -42t-59.5 -110q0 -31 8.5 -54.5t30 -44t58.5 -40t94 -43.5q51 -23 97 -45.5t79 -54t52.5 -74.5t19.5 -103q0 -86 -30 -151.5t-83 -109.5t-125 -67.5t-158 -23.5q-117 0 -204.5 28.5t-133.5 57.5z" />
<glyph unicode="t" horiz-adv-x="716" d="M61 887l25 139h180l56 305h167l-55 -305h262l-24 -139h-258l-107 -580q-4 -16 -6 -43.5t-2 -44.5q0 -66 27.5 -91.5t72.5 -25.5q47 0 82 9.5t68 23.5l35 -125q-35 -18 -93.5 -32.5t-136.5 -14.5q-111 0 -173 50t-64 157q0 23 3 51.5t7 57.5l109 608h-175z" />
<glyph unicode="u" horiz-adv-x="1114" d="M98 221q0 18 2 44t5.5 53.5t6.5 54t7 47.5l108 606h176l-104 -584q-4 -18 -8 -44.5t-7 -55.5t-6.5 -54.5t-3.5 -39.5q0 -139 144 -139q117 0 193.5 70.5t105.5 228.5l108 618h176l-145 -827l68 -156l-146 -76l-86 148q-27 -29 -57.5 -55.5t-68.5 -48t-85 -35t-106 -13.5 q-74 0 -127 19.5t-86 54.5t-48.5 82t-15.5 102z" />
<glyph unicode="v" horiz-adv-x="1034" d="M102 1016l181 28l92 -880q4 -37 11 -52.5t26 -15.5q18 0 30.5 15.5t28.5 52.5l406 874l157 -32l-407 -867q-47 -102 -99.5 -139t-132.5 -37q-55 0 -91 12.5t-57.5 37t-32.5 63.5t-17 94z" />
<glyph unicode="w" horiz-adv-x="1445" d="M102 1022l179 22l8 -892q0 -29 4 -42.5t20 -13.5q25 0 45 54l344 876h148l33 -876q0 -53 24 -54q16 0 24.5 11.5t20.5 42.5l338 894l156 -22l-336 -864q-39 -102 -89 -148.5t-142 -46.5q-55 0 -87 11.5t-49.5 37t-22.5 64.5t-5 94l-8 512l-203 -535q-35 -92 -88.5 -138 t-130.5 -46q-55 0 -88 11.5t-50.5 36t-23.5 64.5t-6 95z" />
<glyph unicode="x" horiz-adv-x="884" d="M-82 23l365 495l-187 477l164 49l152 -401q8 -20 12 -26.5t10 -6.5q10 0 31 29l278 410l142 -48l-330 -475l203 -501l-164 -48l-160 408q-10 23 -15 30t-18 7q-12 0 -20 -8t-25 -31l-295 -410z" />
<glyph unicode="y" horiz-adv-x="1001" d="M-82 -422l47 131q33 -14 68 -23.5t82 -9.5q51 0 87 13.5t63.5 38t49 61.5t43.5 86l62 141h-12q-121 0 -174.5 76t-65.5 221l-82 705l184 31l76 -732q4 -53 13.5 -87.5t23.5 -54t33.5 -27t44.5 -7.5h14l363 910l163 -33l-487 -1178q-61 -152 -153.5 -225.5t-237.5 -73.5 q-72 0 -118 9.5t-87 27.5z" />
<glyph unicode="z" horiz-adv-x="851" d="M-25 106q0 47 24 91.5t62 87.5l547 604h-487l22 137h699l-23 -133l-637 -703q-18 -18 -18 -34t31 -17h530l-23 -139h-600q-78 0 -102.5 35t-24.5 71z" />
<glyph unicode="{" horiz-adv-x="780" d="M61 553l27 147h100q41 0 63.5 29t33.5 76l63 334q18 102 47 176t76 121t115.5 69.5t167.5 22.5q33 0 71.5 -7.5t57.5 -15.5l-49 -127q-27 10 -49.5 14.5t-51.5 4.5q-90 0 -136 -52.5t-71 -185.5l-55 -299q-16 -90 -43 -147.5t-90 -85.5q35 -18 47 -48t12 -73 q0 -49 -12 -113l-59 -332q-4 -20 -6.5 -44.5t-2.5 -45.5q0 -72 30 -107.5t99 -35.5q29 0 57.5 3t57.5 13l14 -129q-10 -4 -29.5 -8t-42 -7t-45 -5t-38.5 -2q-143 0 -211 69.5t-68 200.5q0 53 13 119l67 367q2 10 2 30q0 35 -15 54.5t-48 19.5h-99z" />
<glyph unicode="|" horiz-adv-x="491" d="M-51 -465l377 2085h166l-377 -2085h-166z" />
<glyph unicode="}" horiz-adv-x="780" d="M-143 -285l49 127q27 -10 49 -14t51 -4q90 0 136 52t71 185l55 301q16 90 43 147.5t90 86.5q-35 18 -47 48t-12 73q0 47 12 112l60 330q4 25 6 47.5t2 42.5q0 72 -30 108t-99 36q-29 0 -57.5 -3.5t-57.5 -13.5l-14 129q10 4 29.5 8.5t42 7.5t45 5t38.5 2q143 0 211 -69.5 t68 -201.5q0 -55 -12 -118l-68 -365q-2 -10 -2 -31q0 -35 15.5 -54t48.5 -19h98l-27 -148h-100q-41 0 -63.5 -28.5t-32.5 -75.5l-66 -355q-18 -102 -50 -172.5t-79 -114.5t-114.5 -63.5t-159.5 -19.5q-33 0 -72 7t-57 15z" />
<glyph unicode="~" horiz-adv-x="1181" d="M166 713q23 27 56.5 57.5t74.5 56t87 43t93 17.5q45 0 80 -16.5t66.5 -35t66.5 -35t84 -16.5q53 0 105.5 31t99.5 72l76 -96q-23 -27 -56.5 -58t-74.5 -56.5t-87 -43t-94 -17.5q-47 0 -80.5 16.5t-65.5 35t-66.5 35t-84.5 16.5q-53 0 -105 -31t-99 -72z" />
<glyph unicode="&#xa1;" horiz-adv-x="534" d="M-8 -449l213 1057h149l-164 -1057h-198zM209 899q0 74 38 119t97 45q55 0 85 -37t30 -86q0 -74 -40 -116t-97 -42q-53 0 -83 35t-30 82z" />
<glyph unicode="&#xa2;" d="M233 528q0 141 35 259t97.5 204t152.5 138.5t201 66.5l63 238h152l-60 -238q55 -10 102.5 -27.5t80.5 -40.5l-66 -112q-35 20 -88 36.5t-119 16.5q-86 0 -153.5 -40t-114.5 -109.5t-71.5 -165t-24.5 -203.5q0 -168 61.5 -238.5t169.5 -70.5q59 0 122 19.5t108 41.5 l39 -131q-45 -23 -107.5 -43t-140.5 -27l-54 -223h-153l57 234q-147 29 -218 138t-71 277z" />
<glyph unicode="&#xa3;" d="M115 655l22 138h209l98 297q33 96 72 168.5t94.5 120.5t129 73t173.5 25q102 0 179 -26t122 -56l-73 -121q-41 27 -103.5 43t-124.5 16q-49 0 -91 -8t-77.5 -31.5t-65.5 -65.5t-52 -112l-109 -323h414l-23 -138h-436l-123 -379q-4 -16 -10 -38.5t-6 -38.5q0 -29 13 -38 t40 -9h617l-15 -152h-692q-72 0 -114 30.5t-42 82.5q0 39 7.5 74.5t21.5 74.5l133 393h-188z" />
<glyph unicode="&#xa4;" d="M127 385l162 160q-35 47 -50.5 96t-15.5 113q0 63 15.5 112t50.5 97l-162 159l113 105l155 -158q88 63 211 64q123 0 211 -64l156 158l112 -105l-161 -159q35 -47 50 -96.5t15 -112.5t-15.5 -112.5t-49.5 -96.5l161 -160l-112 -104l-156 157q-88 -63 -211 -63t-211 63 l-155 -157zM369 754q0 -47 19.5 -90t52 -76t75.5 -52.5t90 -19.5t90 19.5t76 52.5t52.5 76t19.5 90t-19.5 90t-52.5 75.5t-76 52t-90 19.5t-90 -19.5t-75.5 -52t-52 -75.5t-19.5 -90z" />
<glyph unicode="&#xa5;" d="M104 322l23 135h328l30 161h-327l22 136h250q-10 16 -18.5 38.5t-14.5 45.5l-155 620l178 37l158 -661q6 -29 16 -46.5t18 -17.5t18.5 10.5t28.5 40.5l404 670l158 -39l-381 -616q-14 -23 -29.5 -44.5t-32.5 -37.5h260l-22 -136h-346l-29 -161h344l-22 -135h-347 l-55 -322h-186l55 322h-326z" />
<glyph unicode="&#xa6;" horiz-adv-x="491" d="M-51 -465l155 866h166l-155 -866h-166zM190 877l136 743h166l-136 -743h-166z" />
<glyph unicode="&#xa7;" horiz-adv-x="1064" d="M41 -197l72 136q35 -16 100.5 -38t138.5 -22q45 0 92.5 6t86 26.5t63 58.5t24.5 102q0 43 -13 73.5t-39.5 52t-68.5 39t-98 33.5q-59 18 -116.5 38t-101.5 52.5t-70.5 82t-26.5 124.5q0 115 59.5 192t151.5 136q-35 35 -57.5 84t-22.5 119q0 104 39 176t102.5 117 t142.5 65.5t156 20.5q100 0 184.5 -22.5t133.5 -51.5l-72 -135q-35 16 -100.5 37.5t-138.5 21.5q-45 0 -92.5 -6t-86.5 -26.5t-63.5 -58.5t-24.5 -101q0 -43 13.5 -74t40 -52.5t68.5 -39t97 -33.5q63 -18 121 -40t101 -54.5t68.5 -83.5t25.5 -129q0 -98 -58.5 -178 t-154.5 -140q37 -35 59.5 -84t22.5 -118q0 -109 -38 -181.5t-98.5 -116.5t-137 -62.5t-156.5 -18.5q-109 0 -194 22.5t-134 50.5zM248 614q0 -41 12 -68.5t39 -48t71 -37t109 -36.5q33 -10 72 -22.5t57 -20.5q72 47 115 95t43 102q0 43 -10.5 71.5t-37 51t-71.5 41 t-112 40.5q-35 10 -72 21.5t-64 23.5q-152 -88 -151 -213z" />
<glyph unicode="&#xa8;" horiz-adv-x="1024" d="M193 1350q0 72 35.5 113.5t93.5 41.5q53 0 80.5 -34.5t27.5 -81.5q0 -70 -39 -111t-92 -41q-51 0 -78.5 34t-27.5 79zM594 1350q0 72 36 113.5t93 41.5q53 0 80.5 -34.5t27.5 -81.5q0 -70 -39 -111t-92 -41q-51 0 -78.5 34t-27.5 79z" />
<glyph unicode="&#xa9;" horiz-adv-x="1767" d="M143 737q0 154 53.5 288t150.5 233.5t234.5 158t305.5 58.5t305 -58.5t232.5 -158t147.5 -233.5t52 -288t-53 -288t-150.5 -233t-234.5 -157.5t-305 -58.5q-172 0 -309.5 58.5t-232.5 157.5t-145.5 233t-50.5 288zM276 737q0 -127 42 -239.5t121 -196.5t193 -133t255 -49 q143 0 255.5 49t191.5 133t120 196.5t41 239.5q0 129 -41 241t-120 195.5t-191.5 132t-255.5 48.5q-141 0 -255 -48.5t-193 -132t-121 -195.5t-42 -241zM502 737q0 94 23.5 174t73.5 138.5t127 92.5t183 34q70 0 133.5 -19.5t110.5 -44.5l-47 -106q-47 23 -97.5 36 t-105.5 13q-123 0 -179 -76t-56 -242q0 -143 52 -219t189 -76q55 0 107.5 14.5t101.5 39.5l41 -107q-37 -23 -107.5 -46.5t-154.5 -23.5q-113 0 -188.5 34t-121.5 91.5t-65.5 133t-19.5 159.5z" />
<glyph unicode="&#xaa;" horiz-adv-x="849" d="M102 827q0 117 36 212.5t100.5 163t151.5 104t190 36.5q35 0 121.5 -17t97.5 -21l-107 -576l49 -104l-114 -56l-66 103q-41 -41 -97 -74t-134 -33q-104 0 -166 70t-62 192zM262 856q0 -96 31 -137t80 -41q25 0 54.5 10t57 31.5t48 56.5t30.5 84l70 373l-74 14 q-55 0 -109.5 -26.5t-121 -149.5t-66.5 -215z" />
<glyph unicode="&#xab;" horiz-adv-x="952" d="M51 559q0 72 38 116t99 91l232 174l98 -76l-246 -202q-35 -29 -47 -50.5t-12 -44.5q0 -16 6 -32.5t25 -38.5l178 -217l-119 -70l-158 178q-43 43 -68.5 81t-25.5 91zM438 559q0 72 38 116t99 91l232 174l98 -76l-246 -202q-35 -29 -47 -50.5t-12 -44.5q0 -16 6 -32.5 t25 -38.5l178 -217l-119 -70l-158 178q-43 43 -68.5 81t-25.5 91z" />
<glyph unicode="&#xac;" horiz-adv-x="1454" d="M250 614v164h952v-424h-149v260h-803z" />
<glyph unicode="&#xad;" horiz-adv-x="866" d="M139 557l31 174h577l-31 -174h-577z" />
<glyph unicode="&#xae;" horiz-adv-x="1257" d="M156 969q0 104 35.5 197.5t102 163t162 110.5t214.5 41q123 0 219 -40t161.5 -108.5t99.5 -161t34 -196.5t-38 -196.5t-106.5 -160t-163 -107.5t-206.5 -40q-115 0 -209 39t-162 105.5t-105.5 158t-37.5 195.5zM270 969q0 -82 27 -154t78 -126t124.5 -86t170.5 -32 q102 0 178 33t125 88.5t73.5 128t24.5 154.5t-24.5 155.5t-73.5 129t-125 88t-178 32.5t-177 -33.5t-124.5 -90t-74 -131t-24.5 -156.5zM487 727v520h197q74 0 128 -33.5t54 -115.5q0 -53 -29.5 -89t-76.5 -57q10 -6 16 -15t17 -26l94 -163l-107 -25l-94 172 q-12 23 -21.5 29t-25.5 6h-43v-203h-109zM596 997h72q47 0 65.5 26t18.5 69q0 84 -84 84h-72v-179z" />
<glyph unicode="&#xaf;" horiz-adv-x="1024" d="M203 1260l26 149h592l-26 -149h-592z" />
<glyph unicode="&#xb0;" horiz-adv-x="712" d="M154 1214q0 53 18 99.5t52 81.5t81 54t103 19q55 0 102 -19t81 -54t52.5 -81t18.5 -100q0 -53 -18.5 -99t-52.5 -81t-81 -54t-102 -19q-119 0 -186.5 73.5t-67.5 179.5zM279 1214q0 -55 36 -95t93 -40t93 40t36 95t-37 95.5t-92 40.5t-92 -40t-37 -96z" />
<glyph unicode="&#xb1;" d="M150 0v164h915v-164h-915zM150 655v164h374v375h166v-375h375v-164h-375v-374h-166v374h-374z" />
<glyph unicode="&#xb2;" horiz-adv-x="860" d="M147 678q0 35 18.5 65.5t63.5 65.5l277 221q74 59 115 109.5t41 115.5q0 41 -28 68t-83 27q-66 0 -119 -27t-100 -59l-60 96q59 43 134 80t163 37q113 0 176.5 -58.5t63.5 -144.5q0 -59 -21.5 -109.5t-55.5 -93.5t-76 -79t-81 -66l-253 -193q-8 -8 -9 -14q0 -8 15 -8h391 l-23 -129h-430q-53 0 -86 25.5t-33 70.5z" />
<glyph unicode="&#xb3;" horiz-adv-x="860" d="M113 655l73 107q37 -29 88.5 -50.5t116.5 -21.5q102 0 148.5 50.5t46.5 117.5q0 127 -170 127h-60l17 94l295 252h-387l22 127h414q51 0 73.5 -22.5t22.5 -57.5q0 -41 -19.5 -72.5t-68.5 -70.5l-186 -150q98 -6 149 -62t51 -142q0 -63 -22.5 -121t-65.5 -102 t-105.5 -69.5t-142.5 -25.5q-104 0 -175.5 26.5t-114.5 65.5z" />
<glyph unicode="&#xb4;" horiz-adv-x="1024" d="M299 1262l289 370l135 -114l-338 -326z" />
<glyph unicode="&#xb5;" horiz-adv-x="1122" d="M-35 -446l258 1472h176l-106 -608q-4 -31 -12.5 -80t-8.5 -90q0 -59 28 -99t110 -40q49 0 97 13t88 44t69.5 82t42.5 127l114 651h176l-145 -829l68 -154l-146 -76l-86 148q-59 -66 -130 -109t-167 -43q-20 0 -43.5 4t-47.5 13.5t-43 23.5t-32 37l-86 -487h-174z" />
<glyph unicode="&#xb6;" horiz-adv-x="1148" d="M41 -305l70 137q33 -20 94 -41.5t133 -21.5q113 0 177.5 73.5t98.5 257.5l222 1229h-140l-139 -772q-195 0 -296 85t-101 255q0 178 51 290.5t130 177.5t171 88.5t172 23.5h514l-27 -148h-151l-223 -1237q-43 -238 -151.5 -355.5t-311.5 -117.5q-98 0 -174 23.5 t-119 52.5z" />
<glyph unicode="&#xb7;" horiz-adv-x="557" d="M174 735q0 74 38 119t97 45q55 0 85 -37t30 -86q0 -74 -40 -116t-97 -42q-53 0 -83 35t-30 82z" />
<glyph unicode="&#xb8;" horiz-adv-x="1024" d="M270 -426l58 109q29 -20 67.5 -37t89.5 -17q53 0 81 29t28 78q0 47 -42 64.5t-108 17.5l74 202h119l-45 -122q72 -8 117 -46t45 -110q0 -104 -70 -169t-197 -65q-119 0 -217 66z" />
<glyph unicode="&#xb9;" horiz-adv-x="860" d="M188 582l25 125h186l103 575q0 2 1 6t1 8q0 8 -6 9q-8 0 -19 -9l-147 -108l-68 94l215 156q27 18 52.5 28.5t62.5 10.5q35 0 55.5 -17.5t20.5 -52.5q0 -20 -6 -51l-115 -649h182l-24 -125h-519z" />
<glyph unicode="&#xba;" horiz-adv-x="786" d="M102 856q0 123 35 214t90.5 152.5t125 91t141.5 29.5q68 0 118 -24.5t84.5 -64.5t52 -92t17.5 -107q0 -123 -32 -215t-85 -153.5t-122.5 -91.5t-145.5 -30q-74 0 -126 24.5t-86 64.5t-50.5 92.5t-16.5 109.5zM258 854q0 -88 32.5 -135t98.5 -47q55 0 97 33.5t69 89 t40 126t13 142.5q0 84 -31.5 129t-91.5 45q-57 0 -100 -34t-70.5 -88t-42 -122.5t-14.5 -138.5z" />
<glyph unicode="&#xbb;" horiz-adv-x="960" d="M4 283l246 211q35 29 47 49t12 45q0 35 -30 71l-179 209l119 70l158 -170q41 -41 67.5 -80t26.5 -92q0 -66 -39 -113t-98 -94l-232 -182zM393 283l246 211q35 29 47 49t12 45q0 35 -30 71l-179 209l119 70l158 -170q41 -41 67.5 -80t26.5 -92q0 -66 -39 -113t-98 -94 l-232 -182z" />
<glyph unicode="&#xbc;" horiz-adv-x="2048" d="M155 582l25 125h186l103 575q0 2 1 6t1 8q0 8 -6 9q-8 0 -19 -9l-147 -108l-68 94l215 156q27 18 52.5 28.5t62.5 10.5q35 0 55.5 -17.5t20.5 -52.5q0 -20 -6 -51l-115 -649h182l-24 -125h-519zM471 0l1016 1458h183l-1016 -1458h-183zM1272 309q0 41 17.5 70.5 t58.5 72.5l403 428h127l-98 -538h121l-19 -117h-122l-39 -221h-142l39 221h-239q-55 0 -81 22.5t-26 61.5zM1401 348q0 -6 10 -6h228l63 331l-289 -307q-12 -12 -12 -18z" />
<glyph unicode="&#xbd;" horiz-adv-x="2048" d="M147 582l25 125h186l103 575q0 2 1 6t1 8q0 8 -6 9q-8 0 -19 -9l-147 -108l-68 94l215 156q27 18 52.5 28.5t62.5 10.5q35 0 55.5 -17.5t20.5 -52.5q0 -20 -6 -51l-115 -649h182l-24 -125h-519zM436 0l1016 1458h183l-1016 -1458h-183zM1247 100q0 35 18.5 65.5 t63.5 65.5l277 221q74 59 115 109.5t41 115.5q0 41 -28 68t-83 27q-66 0 -119 -27t-100 -59l-60 96q59 43 134 80t163 37q113 0 176.5 -58.5t63.5 -144.5q0 -59 -21.5 -109.5t-55.5 -93.5t-76 -79t-81 -66l-253 -193q-8 -8 -9 -14q0 -8 15 -8h391l-23 -129h-430 q-53 0 -86 25.5t-33 70.5z" />
<glyph unicode="&#xbe;" horiz-adv-x="2048" d="M109 655l73 107q37 -29 88.5 -50.5t116.5 -21.5q102 0 148.5 50.5t46.5 117.5q0 127 -170 127h-60l17 94l295 252h-387l22 127h414q51 0 73.5 -22.5t22.5 -57.5q0 -41 -19.5 -72.5t-68.5 -70.5l-186 -150q98 -6 149 -62t51 -142q0 -63 -22.5 -121t-65.5 -102 t-105.5 -69.5t-142.5 -25.5q-104 0 -175.5 26.5t-114.5 65.5zM485 0l1016 1458h183l-1016 -1458h-183zM1253 309q0 41 17.5 70.5t58.5 72.5l403 428h127l-98 -538h121l-19 -117h-122l-39 -221h-142l39 221h-239q-55 0 -81 22.5t-26 61.5zM1382 348q0 -6 10 -6h228l63 331 l-289 -307q-12 -12 -12 -18z" />
<glyph unicode="&#xbf;" horiz-adv-x="901" d="M-16 -176q0 74 19.5 133t52 110.5t75.5 93.5t90 79l86 67q74 59 121 108.5t61 127.5l13 65h145l-20 -106q-16 -96 -68.5 -159.5t-116.5 -115.5l-112 -94q-86 -72 -123 -135.5t-37 -142.5q0 -82 50 -130.5t161 -48.5q98 0 181 35t161 90l65 -112q-86 -70 -201.5 -116 t-244.5 -46q-92 0 -159.5 22.5t-111.5 62.5t-65.5 94t-21.5 118zM504 899q0 74 38 119t97 45q55 0 85 -37t30 -86q0 -74 -40.5 -116t-97.5 -42q-53 0 -82.5 35t-29.5 82z" />
<glyph unicode="&#xc0;" horiz-adv-x="1234" d="M-82 6l610 1327q43 92 95.5 132t140.5 40q49 0 83 -9t56.5 -32.5t35.5 -65.5t19 -110l134 -1286l-195 -31l-53 510h-525l-233 -510zM385 635h442l-65 637q-4 45 -9 58t-22 13q-16 0 -26.5 -15t-26.5 -52zM546 1853l132 121l256 -332l-82 -71z" />
<glyph unicode="&#xc1;" horiz-adv-x="1234" d="M-82 6l610 1327q43 92 95.5 132t140.5 40q49 0 83 -9t56.5 -32.5t35.5 -65.5t19 -110l134 -1286l-195 -31l-53 510h-525l-233 -510zM385 635h442l-65 637q-4 45 -9 58t-22 13q-16 0 -26.5 -15t-26.5 -52zM605 1653l344 315l114 -135l-385 -262z" />
<glyph unicode="&#xc2;" horiz-adv-x="1234" d="M-82 6l610 1327q43 92 95.5 132t140.5 40q49 0 83 -9t56.5 -32.5t35.5 -65.5t19 -110l134 -1286l-195 -31l-53 510h-525l-233 -510zM385 635h442l-65 637q-4 45 -9 58t-22 13q-16 0 -26.5 -15t-26.5 -52zM520 1634l244 279h131l151 -293l-102 -43l-133 188l-213 -186z " />
<glyph unicode="&#xc3;" horiz-adv-x="1234" d="M-82 6l610 1327q43 92 95.5 132t140.5 40q49 0 83 -9t56.5 -32.5t35.5 -65.5t19 -110l134 -1286l-195 -31l-53 510h-525l-233 -510zM385 635h442l-65 637q-4 45 -9 58t-22 13q-16 0 -26.5 -15t-26.5 -52zM405 1608q20 123 69.5 186.5t137.5 63.5q35 0 71 -13.5t69 -27.5 l79 -35q33 -14 59.5 -24.5t49.5 -10.5q37 0 60.5 23.5t33.5 91.5l105 -15q-20 -123 -69.5 -186.5t-137.5 -63.5q-35 0 -71 12.5t-69 26.5l-79 35q-33 14 -59.5 25.5t-49.5 11.5q-37 0 -60.5 -23.5t-33.5 -91.5z" />
<glyph unicode="&#xc4;" horiz-adv-x="1234" d="M-82 6l610 1327q43 92 95.5 132t140.5 40q49 0 83 -9t56.5 -32.5t35.5 -65.5t19 -110l134 -1286l-195 -31l-53 510h-525l-233 -510zM385 635h442l-65 637q-4 45 -9 58t-22 13q-16 0 -26.5 -15t-26.5 -52zM465 1694q0 72 37.5 118t101.5 46q47 0 72.5 -32t25.5 -79 q0 -72 -40 -115t-99 -43q-47 0 -72.5 30t-25.5 75zM866 1694q0 72 38 118t101 46q47 0 72.5 -32t25.5 -79q0 -72 -40 -115t-99 -43q-47 0 -72.5 30t-25.5 75z" />
<glyph unicode="&#xc5;" horiz-adv-x="1234" d="M-82 6l610 1327q43 92 95.5 132t140.5 40q49 0 83 -9t56.5 -32.5t35.5 -65.5t19 -110l134 -1286l-195 -31l-53 510h-525l-233 -510zM385 635h442l-65 637q-4 45 -9 58t-22 13q-16 0 -26.5 -15t-26.5 -52zM514 1823q0 55 20.5 103t56 84t84 56.5t103.5 20.5t103.5 -20.5 t84 -56.5t56 -84t20.5 -103t-20.5 -103.5t-56 -84.5t-84 -56t-103.5 -20t-103.5 20t-84 56t-56 84.5t-20.5 103.5zM641 1823q0 -59 39 -99.5t98 -40.5t98 40t39 100q0 59 -39 99t-98 40t-98 -40t-39 -99z" />
<glyph unicode="&#xc6;" horiz-adv-x="1845" d="M-82 6l766 1280q61 102 153.5 146.5t227.5 44.5h831l-28 -152h-635l-90 -506h473l-29 -155h-473l-90 -508h655l-26 -156h-842l117 664h-428l-414 -693zM592 819h364l88 496q-88 0 -137 -26.5t-86 -88.5z" />
<glyph unicode="&#xc7;" horiz-adv-x="1095" d="M86 555q0 223 61.5 400.5t164 300t234.5 187t275 64.5q98 0 180 -26.5t146 -73.5l-76 -127q-55 39 -121.5 57.5t-128.5 18.5q-121 0 -218 -61.5t-166.5 -170t-106.5 -256t-37 -317.5q0 -90 15.5 -168t51 -137.5t95 -93t149.5 -33.5q82 0 157 24.5t169 77.5l51 -139 q-90 -53 -175 -82t-185 -35l-25 -67q72 -8 117 -46t45 -110q0 -104 -70 -169t-196 -65q-119 0 -218 66l58 109q29 -20 67.5 -37t89.5 -17q53 0 81 29t28 78q0 47 -42 64.5t-107 17.5l53 149q-119 10 -199 59.5t-128 128t-68.5 181t-20.5 219.5z" />
<glyph unicode="&#xc8;" horiz-adv-x="1052" d="M39 0l262 1477h803l-29 -152h-614l-84 -477h473l-29 -156h-473l-96 -536h655l-26 -156h-842zM536 1853l132 121l256 -332l-82 -71z" />
<glyph unicode="&#xc9;" horiz-adv-x="1052" d="M39 0l262 1477h803l-29 -152h-614l-84 -477h473l-29 -156h-473l-96 -536h655l-26 -156h-842zM594 1653l344 315l114 -135l-385 -262z" />
<glyph unicode="&#xca;" horiz-adv-x="1052" d="M39 0l262 1477h803l-29 -152h-614l-84 -477h473l-29 -156h-473l-96 -536h655l-26 -156h-842zM483 1634l244 279h131l151 -293l-102 -43l-133 188l-213 -186z" />
<glyph unicode="&#xcb;" horiz-adv-x="1052" d="M39 0l262 1477h803l-29 -152h-614l-84 -477h473l-29 -156h-473l-96 -536h655l-26 -156h-842zM424 1694q0 72 37.5 118t101.5 46q47 0 72.5 -32t25.5 -79q0 -72 -40 -115t-99 -43q-47 0 -72.5 30t-25.5 75zM825 1694q0 72 38 118t101 46q47 0 72.5 -32t25.5 -79 q0 -72 -40 -115t-99 -43q-47 0 -72.5 30t-25.5 75z" />
<glyph unicode="&#xcc;" horiz-adv-x="524" d="M39 0l262 1477h186l-262 -1477h-186zM174 1853l132 121l256 -332l-82 -71z" />
<glyph unicode="&#xcd;" horiz-adv-x="524" d="M39 0l262 1477h186l-262 -1477h-186zM236 1653l344 315l114 -135l-385 -262z" />
<glyph unicode="&#xce;" horiz-adv-x="524" d="M39 0l262 1477h186l-262 -1477h-186zM139 1634l244 279h131l151 -293l-102 -43l-133 188l-213 -186z" />
<glyph unicode="&#xcf;" horiz-adv-x="524" d="M39 0l262 1477h186l-262 -1477h-186zM111 1694q0 72 37.5 118t101.5 46q47 0 72.5 -32t25.5 -79q0 -72 -40 -115t-99 -43q-47 0 -72.5 30t-25.5 75zM512 1694q0 72 38 118t101 46q47 0 72.5 -32t25.5 -79q0 -72 -40 -115t-99 -43q-47 0 -72.5 30t-25.5 75z" />
<glyph unicode="&#xd0;" horiz-adv-x="1361" d="M51 674l25 145h135l117 658h362q156 0 266.5 -38t180 -113t101.5 -185.5t32 -253.5q0 -176 -51.5 -337t-148.5 -283t-240.5 -194.5t-327.5 -72.5h-436l118 674h-133zM279 154h223q125 0 228.5 50t177 143t114.5 227.5t41 302.5q0 127 -24.5 213t-74 139t-124 75.5 t-174.5 22.5h-179l-92 -508h387l-24 -145h-387z" />
<glyph unicode="&#xd1;" horiz-adv-x="1333" d="M39 0l260 1477h190l371 -1254q8 -29 11 -38t14 -9q10 0 12 7t6 24l227 1270h166l-225 -1272q-23 -123 -75 -171t-142 -48q-55 0 -96 28.5t-68 118.5l-289 991l-196 -1124h-166zM473 1608q20 123 69.5 186.5t137.5 63.5q35 0 71 -13.5t69 -27.5l79 -35q33 -14 59.5 -24.5 t49.5 -10.5q37 0 60.5 23.5t33.5 91.5l105 -15q-20 -123 -69.5 -186.5t-137.5 -63.5q-35 0 -71 12.5t-69 26.5l-79 35q-33 14 -59.5 25.5t-49.5 11.5q-37 0 -60.5 -23.5t-33.5 -91.5z" />
<glyph unicode="&#xd2;" horiz-adv-x="1368" d="M78 524q0 203 52 381t147.5 312.5t227.5 212t292 77.5q123 0 215 -42t151.5 -116.5t89 -177t29.5 -225.5q0 -209 -51 -388t-146.5 -311t-229.5 -208t-302 -76q-127 0 -217 42t-147.5 117t-84 177t-26.5 225zM283 510q0 -182 71.5 -287.5t216.5 -105.5q123 0 217.5 69.5 t159 186t97 269.5t32.5 319q0 182 -71.5 287.5t-221.5 105.5q-123 0 -217 -70t-157.5 -186.5t-95 -269t-31.5 -318.5zM639 1853l132 121l256 -332l-82 -71z" />
<glyph unicode="&#xd3;" horiz-adv-x="1368" d="M78 524q0 203 52 381t147.5 312.5t227.5 212t292 77.5q123 0 215 -42t151.5 -116.5t89 -177t29.5 -225.5q0 -209 -51 -388t-146.5 -311t-229.5 -208t-302 -76q-127 0 -217 42t-147.5 117t-84 177t-26.5 225zM283 510q0 -182 71.5 -287.5t216.5 -105.5q123 0 217.5 69.5 t159 186t97 269.5t32.5 319q0 182 -71.5 287.5t-221.5 105.5q-123 0 -217 -70t-157.5 -186.5t-95 -269t-31.5 -318.5zM662 1653l344 315l114 -135l-385 -262z" />
<glyph unicode="&#xd4;" horiz-adv-x="1368" d="M78 524q0 203 52 381t147.5 312.5t227.5 212t292 77.5q123 0 215 -42t151.5 -116.5t89 -177t29.5 -225.5q0 -209 -51 -388t-146.5 -311t-229.5 -208t-302 -76q-127 0 -217 42t-147.5 117t-84 177t-26.5 225zM283 510q0 -182 71.5 -287.5t216.5 -105.5q123 0 217.5 69.5 t159 186t97 269.5t32.5 319q0 182 -71.5 287.5t-221.5 105.5q-123 0 -217 -70t-157.5 -186.5t-95 -269t-31.5 -318.5zM555 1634l244 279h131l151 -293l-102 -43l-133 188l-213 -186z" />
<glyph unicode="&#xd5;" horiz-adv-x="1368" d="M78 524q0 203 52 381t147.5 312.5t227.5 212t292 77.5q123 0 215 -42t151.5 -116.5t89 -177t29.5 -225.5q0 -209 -51 -388t-146.5 -311t-229.5 -208t-302 -76q-127 0 -217 42t-147.5 117t-84 177t-26.5 225zM283 510q0 -182 71.5 -287.5t216.5 -105.5q123 0 217.5 69.5 t159 186t97 269.5t32.5 319q0 182 -71.5 287.5t-221.5 105.5q-123 0 -217 -70t-157.5 -186.5t-95 -269t-31.5 -318.5zM469 1608q20 123 69.5 186.5t137.5 63.5q35 0 71 -13.5t69 -27.5l79 -35q33 -14 59.5 -24.5t49.5 -10.5q37 0 60.5 23.5t33.5 91.5l105 -15 q-20 -123 -69.5 -186.5t-137.5 -63.5q-35 0 -71 12.5t-69 26.5l-79 35q-33 14 -59.5 25.5t-49.5 11.5q-37 0 -60.5 -23.5t-33.5 -91.5z" />
<glyph unicode="&#xd6;" horiz-adv-x="1368" d="M78 524q0 203 52 381t147.5 312.5t227.5 212t292 77.5q123 0 215 -42t151.5 -116.5t89 -177t29.5 -225.5q0 -209 -51 -388t-146.5 -311t-229.5 -208t-302 -76q-127 0 -217 42t-147.5 117t-84 177t-26.5 225zM283 510q0 -182 71.5 -287.5t216.5 -105.5q123 0 217.5 69.5 t159 186t97 269.5t32.5 319q0 182 -71.5 287.5t-221.5 105.5q-123 0 -217 -70t-157.5 -186.5t-95 -269t-31.5 -318.5zM517 1694q0 72 37.5 118t101.5 46q47 0 72.5 -32t25.5 -79q0 -72 -40 -115t-99 -43q-47 0 -72.5 30t-25.5 75zM918 1694q0 72 38 118t101 46 q47 0 72.5 -32t25.5 -79q0 -72 -40 -115t-99 -43q-47 0 -72.5 30t-25.5 75z" />
<glyph unicode="&#xd7;" d="M209 975l123 123l282 -283l277 277l115 -117l-277 -277l283 -282l-121 -121l-283 283l-276 -277l-115 117l275 274z" />
<glyph unicode="&#xd8;" horiz-adv-x="1376" d="M70 -170l153 260q-72 76 -104.5 186.5t-32.5 247.5q0 203 52 381t147.5 312.5t227.5 212t292 77.5q131 0 233 -51l95 158h182l-152 -256q66 -76 96.5 -180.5t30.5 -231.5q0 -209 -51 -388t-146.5 -311t-229.5 -208t-302 -76q-59 0 -111.5 10.5t-97.5 26.5l-100 -170h-182 zM291 510q0 -143 43 -236l616 1035q-63 45 -157 45q-123 0 -217.5 -70t-158 -186.5t-95 -269t-31.5 -318.5zM442 150q53 -33 138 -33q123 0 217 69.5t158.5 186t97 269.5t32.5 319q0 127 -32 213z" />
<glyph unicode="&#xd9;" horiz-adv-x="1312" d="M104 342q0 104 25 238l160 897h186l-151 -850q-14 -80 -23.5 -147.5t-9.5 -123.5q0 -119 52 -179t189 -60q94 0 161 29.5t111 89t72.5 147.5t49.5 205l159 889h187l-158 -891q-27 -147 -68.5 -263t-111.5 -196t-172.5 -122t-247.5 -42q-115 0 -192.5 24.5t-126 73 t-70 119t-21.5 162.5zM569 1853l132 121l256 -332l-82 -71z" />
<glyph unicode="&#xda;" horiz-adv-x="1312" d="M104 342q0 104 25 238l160 897h186l-151 -850q-14 -80 -23.5 -147.5t-9.5 -123.5q0 -119 52 -179t189 -60q94 0 161 29.5t111 89t72.5 147.5t49.5 205l159 889h187l-158 -891q-27 -147 -68.5 -263t-111.5 -196t-172.5 -122t-247.5 -42q-115 0 -192.5 24.5t-126 73 t-70 119t-21.5 162.5zM668 1653l344 315l114 -135l-385 -262z" />
<glyph unicode="&#xdb;" horiz-adv-x="1312" d="M104 342q0 104 25 238l160 897h186l-151 -850q-14 -80 -23.5 -147.5t-9.5 -123.5q0 -119 52 -179t189 -60q94 0 161 29.5t111 89t72.5 147.5t49.5 205l159 889h187l-158 -891q-27 -147 -68.5 -263t-111.5 -196t-172.5 -122t-247.5 -42q-115 0 -192.5 24.5t-126 73 t-70 119t-21.5 162.5zM549 1634l244 279h131l151 -293l-102 -43l-133 188l-213 -186z" />
<glyph unicode="&#xdc;" horiz-adv-x="1312" d="M104 342q0 104 25 238l160 897h186l-151 -850q-14 -80 -23.5 -147.5t-9.5 -123.5q0 -119 52 -179t189 -60q94 0 161 29.5t111 89t72.5 147.5t49.5 205l159 889h187l-158 -891q-27 -147 -68.5 -263t-111.5 -196t-172.5 -122t-247.5 -42q-115 0 -192.5 24.5t-126 73 t-70 119t-21.5 162.5zM502 1694q0 72 37.5 118t101.5 46q47 0 72.5 -32t25.5 -79q0 -72 -40 -115t-99 -43q-47 0 -72.5 30t-25.5 75zM903 1694q0 72 38 118t101 46q47 0 72.5 -32t25.5 -79q0 -72 -40 -115t-99 -43q-47 0 -72.5 30t-25.5 75z" />
<glyph unicode="&#xdd;" horiz-adv-x="1073" d="M129 1458l184 37l172 -735q8 -31 14.5 -41t16.5 -10t21.5 11t29.5 42l441 729l163 -39l-462 -750q-27 -41 -45.5 -66.5t-34 -39.5t-28.5 -20.5t-26 -8.5l-98 -567h-188l102 571q-35 8 -53.5 52.5t-34.5 113.5zM586 1653l344 315l114 -135l-385 -262z" />
<glyph unicode="&#xde;" horiz-adv-x="1155" d="M57 0l262 1477h187l-39 -222h227q186 0 298 -84t112 -264q0 -109 -37 -206t-109.5 -170.5t-181 -116.5t-250.5 -43h-217l-65 -371h-187zM336 524h229q76 0 138.5 20.5t108.5 62.5t71.5 108.5t25.5 158.5q0 131 -67.5 182.5t-202.5 51.5h-199z" />
<glyph unicode="&#xdf;" horiz-adv-x="1165" d="M-111 -260q63 20 101.5 91t62.5 216l189 1061q14 82 44.5 153.5t84 126t134.5 85t195 30.5q92 0 153.5 -25.5t96.5 -64.5t49.5 -86t14.5 -88q0 -86 -40 -145.5t-89 -106.5t-89 -93t-40 -106q0 -59 33.5 -98t93.5 -86q27 -20 51 -44.5t43.5 -55.5t32 -70t12.5 -90 q0 -78 -28.5 -146.5t-81 -120.5t-125 -83t-162.5 -31q-96 0 -163 21.5t-116 50.5l47 127q53 -29 102.5 -44.5t118.5 -15.5q51 0 95.5 13.5t77 40t52 67.5t19.5 96q0 66 -39 109t-86 82q-61 49 -105 97t-44 124q0 68 19.5 115t48 85t62.5 68.5t62.5 62.5t48 69.5t19.5 89.5 q0 29 -7.5 55.5t-24.5 46.5t-49 32.5t-81 12.5q-72 0 -118 -20.5t-76.5 -59.5t-48 -95t-29.5 -126l-191 -1067q-12 -76 -33.5 -133t-54.5 -102.5t-80 -78t-114 -57.5z" />
<glyph unicode="&#xe0;" horiz-adv-x="1081" d="M61 338q0 154 44.5 287t126 230t198.5 152.5t260 55.5q100 0 174 -20.5t107 -34.5l-142 -813l70 -152l-147 -76l-86 146q-66 -63 -136.5 -106.5t-167.5 -43.5q-145 0 -223 95.5t-78 279.5zM248 367q0 -80 12 -130.5t33.5 -79t53.5 -38.5t71 -10q37 0 78 16t79.5 49 t67.5 82t41 117l96 542q-20 8 -46.5 13.5t-67.5 5.5q-88 0 -165 -43t-133.5 -120t-88 -180.5t-31.5 -223.5zM489 1544l156 86l170 -387l-101 -49z" />
<glyph unicode="&#xe1;" horiz-adv-x="1081" d="M61 338q0 154 44.5 287t126 230t198.5 152.5t260 55.5q100 0 174 -20.5t107 -34.5l-142 -813l70 -152l-147 -76l-86 146q-66 -63 -136.5 -106.5t-167.5 -43.5q-145 0 -223 95.5t-78 279.5zM248 367q0 -80 12 -130.5t33.5 -79t53.5 -38.5t71 -10q37 0 78 16t79.5 49 t67.5 82t41 117l96 542q-20 8 -46.5 13.5t-67.5 5.5q-88 0 -165 -43t-133.5 -120t-88 -180.5t-31.5 -223.5zM563 1262l289 370l135 -114l-338 -326z" />
<glyph unicode="&#xe2;" horiz-adv-x="1081" d="M61 338q0 154 44.5 287t126 230t198.5 152.5t260 55.5q100 0 174 -20.5t107 -34.5l-142 -813l70 -152l-147 -76l-86 146q-66 -63 -136.5 -106.5t-167.5 -43.5q-145 0 -223 95.5t-78 279.5zM248 367q0 -80 12 -130.5t33.5 -79t53.5 -38.5t71 -10q37 0 78 16t79.5 49 t67.5 82t41 117l96 542q-20 8 -46.5 13.5t-67.5 5.5q-88 0 -165 -43t-133.5 -120t-88 -180.5t-31.5 -223.5zM385 1235l258 350h139l153 -364l-102 -43l-139 243l-232 -241z" />
<glyph unicode="&#xe3;" horiz-adv-x="1081" d="M61 338q0 154 44.5 287t126 230t198.5 152.5t260 55.5q100 0 174 -20.5t107 -34.5l-142 -813l70 -152l-147 -76l-86 146q-66 -63 -136.5 -106.5t-167.5 -43.5q-145 0 -223 95.5t-78 279.5zM248 367q0 -80 12 -130.5t33.5 -79t53.5 -38.5t71 -10q37 0 78 16t79.5 49 t67.5 82t41 117l96 542q-20 8 -46.5 13.5t-67.5 5.5q-88 0 -165 -43t-133.5 -120t-88 -180.5t-31.5 -223.5zM338 1243q20 123 69.5 186.5t137.5 63.5q35 0 71 -13.5t69 -27.5l79 -35q33 -14 59.5 -24.5t49.5 -10.5q37 0 60.5 24t33.5 91l105 -14q-20 -123 -69.5 -186.5 t-137.5 -63.5q-35 0 -71 12t-69 27l-79 35q-33 14 -59.5 25t-49.5 11q-37 0 -60.5 -23.5t-33.5 -90.5z" />
<glyph unicode="&#xe4;" horiz-adv-x="1081" d="M61 338q0 154 44.5 287t126 230t198.5 152.5t260 55.5q100 0 174 -20.5t107 -34.5l-142 -813l70 -152l-147 -76l-86 146q-66 -63 -136.5 -106.5t-167.5 -43.5q-145 0 -223 95.5t-78 279.5zM248 367q0 -80 12 -130.5t33.5 -79t53.5 -38.5t71 -10q37 0 78 16t79.5 49 t67.5 82t41 117l96 542q-20 8 -46.5 13.5t-67.5 5.5q-88 0 -165 -43t-133.5 -120t-88 -180.5t-31.5 -223.5zM381 1350q0 72 35.5 113.5t93.5 41.5q53 0 80.5 -34.5t27.5 -81.5q0 -70 -39 -111t-92 -41q-51 0 -78.5 34t-27.5 79zM782 1350q0 72 36 113.5t93 41.5 q53 0 80.5 -34.5t27.5 -81.5q0 -70 -39 -111t-92 -41q-51 0 -78.5 34t-27.5 79z" />
<glyph unicode="&#xe5;" horiz-adv-x="1081" d="M61 338q0 154 44.5 287t126 230t198.5 152.5t260 55.5q100 0 174 -20.5t107 -34.5l-142 -813l70 -152l-147 -76l-86 146q-66 -63 -136.5 -106.5t-167.5 -43.5q-145 0 -223 95.5t-78 279.5zM248 367q0 -80 12 -130.5t33.5 -79t53.5 -38.5t71 -10q37 0 78 16t79.5 49 t67.5 82t41 117l96 542q-20 8 -46.5 13.5t-67.5 5.5q-88 0 -165 -43t-133.5 -120t-88 -180.5t-31.5 -223.5zM406 1454q0 55 20.5 103.5t56 84t84 56t103.5 20.5t103.5 -20.5t84 -56t56 -84t20.5 -103.5t-20.5 -103t-56 -84t-84 -56.5t-103.5 -20.5t-103.5 20.5t-84 56.5 t-56 84t-20.5 103zM533 1454q0 -59 39 -99t98 -40t98 40t39 99t-39 99t-98 40t-98 -40t-39 -99z" />
<glyph unicode="&#xe6;" horiz-adv-x="1619" d="M61 338q0 154 44.5 287t126 230t198.5 152.5t260 55.5q100 0 174 -20.5t107 -34.5l-15 -80q59 57 140.5 96t185.5 39q80 0 134 -19.5t87 -50t46.5 -71.5t13.5 -84q0 -94 -38 -168t-104.5 -124t-158 -77t-197.5 -27q-29 0 -65.5 1t-86.5 6q-2 -18 -2 -37v-29 q0 -135 55.5 -207t170.5 -72q76 0 130 20.5t101 43.5l41 -129q-55 -29 -127 -52.5t-168 -23.5q-154 0 -244 67.5t-116 159.5q-143 -227 -387 -227q-147 0 -226.5 95.5t-79.5 279.5zM248 367q0 -80 13 -130.5t35.5 -79t54.5 -38.5t67 -10t76 16t79.5 49t68.5 82t42 117 l96 542q-20 8 -46.5 13.5t-67.5 5.5q-88 0 -165 -43t-133.5 -120t-88 -180.5t-31.5 -223.5zM932 567q23 -2 60.5 -3t78.5 -1q61 0 118.5 16.5t101.5 48t71 78t27 105.5q0 119 -136 119q-61 0 -112 -31t-93 -82t-72 -116.5t-44 -133.5z" />
<glyph unicode="&#xe7;" horiz-adv-x="892" d="M72 389q0 156 42 280t116.5 212t179 135t229.5 47q84 0 152.5 -22.5t111.5 -51.5l-65 -112q-35 20 -88.5 36.5t-118.5 16.5q-86 0 -154.5 -40t-118 -109.5t-75 -165t-25.5 -203.5q0 -168 58.5 -239t166.5 -71q59 0 123 16.5t109 39.5l37 -125q-47 -25 -114 -44.5 t-151 -23.5l-24 -67q72 -8 117 -46t45 -110q0 -104 -70 -169t-197 -65q-119 0 -217 66l58 109q29 -20 67.5 -37t89.5 -17q53 0 81 29t28 78q0 47 -42 64.5t-108 17.5l56 153q-154 25 -226.5 134.5t-72.5 283.5z" />
<glyph unicode="&#xe8;" horiz-adv-x="964" d="M72 358q0 135 39 262.5t110.5 225.5t174 157.5t231.5 59.5q80 0 134 -19.5t87 -50t46 -71.5t13 -84q0 -94 -38 -168t-104.5 -124t-157.5 -77t-197 -27q-29 0 -66 1.5t-86 5.5q-2 -18 -2 -37v-29q0 -135 55.5 -207t169.5 -72q76 0 130.5 20.5t101.5 43.5l41 -129 q-55 -29 -127 -52.5t-168 -23.5q-104 0 -178 32t-120 85t-67.5 126t-21.5 152zM276 567q23 -2 61 -3t79 -1q61 0 118.5 16.5t101.5 48t70.5 78t26.5 105.5q0 119 -135 119q-61 0 -112.5 -31t-93.5 -82t-72 -116.5t-44 -133.5zM467 1544l156 86l170 -387l-101 -49z" />
<glyph unicode="&#xe9;" horiz-adv-x="964" d="M72 358q0 135 39 262.5t110.5 225.5t174 157.5t231.5 59.5q80 0 134 -19.5t87 -50t46 -71.5t13 -84q0 -94 -38 -168t-104.5 -124t-157.5 -77t-197 -27q-29 0 -66 1.5t-86 5.5q-2 -18 -2 -37v-29q0 -135 55.5 -207t169.5 -72q76 0 130.5 20.5t101.5 43.5l41 -129 q-55 -29 -127 -52.5t-168 -23.5q-104 0 -178 32t-120 85t-67.5 126t-21.5 152zM276 567q23 -2 61 -3t79 -1q61 0 118.5 16.5t101.5 48t70.5 78t26.5 105.5q0 119 -135 119q-61 0 -112.5 -31t-93.5 -82t-72 -116.5t-44 -133.5zM532 1262l289 370l135 -114l-338 -326z" />
<glyph unicode="&#xea;" horiz-adv-x="964" d="M72 358q0 135 39 262.5t110.5 225.5t174 157.5t231.5 59.5q80 0 134 -19.5t87 -50t46 -71.5t13 -84q0 -94 -38 -168t-104.5 -124t-157.5 -77t-197 -27q-29 0 -66 1.5t-86 5.5q-2 -18 -2 -37v-29q0 -135 55.5 -207t169.5 -72q76 0 130.5 20.5t101.5 43.5l41 -129 q-55 -29 -127 -52.5t-168 -23.5q-104 0 -178 32t-120 85t-67.5 126t-21.5 152zM276 567q23 -2 61 -3t79 -1q61 0 118.5 16.5t101.5 48t70.5 78t26.5 105.5q0 119 -135 119q-61 0 -112.5 -31t-93.5 -82t-72 -116.5t-44 -133.5zM365 1235l258 350h139l153 -364l-102 -43 l-139 243l-232 -241z" />
<glyph unicode="&#xeb;" horiz-adv-x="964" d="M72 358q0 135 39 262.5t110.5 225.5t174 157.5t231.5 59.5q80 0 134 -19.5t87 -50t46 -71.5t13 -84q0 -94 -38 -168t-104.5 -124t-157.5 -77t-197 -27q-29 0 -66 1.5t-86 5.5q-2 -18 -2 -37v-29q0 -135 55.5 -207t169.5 -72q76 0 130.5 20.5t101.5 43.5l41 -129 q-55 -29 -127 -52.5t-168 -23.5q-104 0 -178 32t-120 85t-67.5 126t-21.5 152zM276 567q23 -2 61 -3t79 -1q61 0 118.5 16.5t101.5 48t70.5 78t26.5 105.5q0 119 -135 119q-61 0 -112.5 -31t-93.5 -82t-72 -116.5t-44 -133.5zM330 1350q0 72 35.5 113.5t93.5 41.5 q53 0 80.5 -34.5t27.5 -81.5q0 -70 -39 -111t-92 -41q-51 0 -78.5 34t-27.5 79zM731 1350q0 72 36 113.5t93 41.5q53 0 80.5 -34.5t27.5 -81.5q0 -70 -39 -111t-92 -41q-51 0 -78.5 34t-27.5 79z" />
<glyph unicode="&#xec;" horiz-adv-x="520" d="M57 0l156 891h-119l25 135h295l-181 -1026h-176zM117 1544l156 86l170 -387l-101 -49z" />
<glyph unicode="&#xed;" horiz-adv-x="520" d="M57 0l156 891h-119l25 135h295l-181 -1026h-176zM199 1262l289 370l135 -114l-338 -326z" />
<glyph unicode="&#xee;" horiz-adv-x="520" d="M31 1235l258 350h139l153 -364l-102 -43l-139 243l-232 -241zM57 0l156 891h-119l25 135h295l-181 -1026h-176z" />
<glyph unicode="&#xef;" horiz-adv-x="520" d="M7 1350q0 72 35.5 113.5t93.5 41.5q53 0 80.5 -34.5t27.5 -81.5q0 -70 -39 -111t-92 -41q-51 0 -78.5 34t-27.5 79zM57 0l156 891h-119l25 135h295l-181 -1026h-176zM408 1350q0 72 36 113.5t93 41.5q53 0 80.5 -34.5t27.5 -81.5q0 -70 -39 -111t-92 -41q-51 0 -78.5 34 t-27.5 79z" />
<glyph unicode="&#xf0;" horiz-adv-x="1073" d="M51 385q0 156 44 268.5t114 185t157 107.5t173 35t157.5 -31.5t100.5 -79.5q-6 94 -31 181.5t-74 152.5l-198 -129l-60 94l187 121q-33 29 -88.5 59.5t-98.5 43.5l51 118q61 -16 130 -51t128 -88l199 129l59 -94l-180 -119q29 -37 55.5 -89t48 -115.5t34 -136.5 t12.5 -148q0 -195 -33 -349.5t-100.5 -262t-169 -166t-238.5 -58.5q-180 0 -279.5 110.5t-99.5 311.5zM231 397q0 -141 53.5 -220t170.5 -79q92 0 153.5 57.5t100.5 145.5t58.5 196t27.5 210q-29 57 -91.5 99t-148.5 42q-59 0 -117.5 -25.5t-104.5 -81t-74 -140.5t-28 -204z " />
<glyph unicode="&#xf1;" horiz-adv-x="1130" d="M45 0l145 827l-49 162l148 72l67 -156q23 27 55.5 54.5t75.5 50t97.5 38t120.5 15.5q70 0 119.5 -19.5t82.5 -54.5t48.5 -82t15.5 -102q0 -18 -2 -44t-5 -53.5t-6.5 -54t-7.5 -47.5l-108 -606h-176l104 584q2 18 7 44.5t8 55.5t6.5 53.5t3.5 40.5q0 135 -144 135 q-59 0 -112.5 -21.5t-96.5 -59t-71.5 -92t-40.5 -122.5l-109 -618h-176zM297 1243q20 123 69.5 186.5t137.5 63.5q35 0 71 -13.5t69 -27.5l79 -35q33 -14 59.5 -24.5t49.5 -10.5q37 0 60.5 24t33.5 91l105 -14q-20 -123 -69.5 -186.5t-137.5 -63.5q-35 0 -71 12t-69 27 l-79 35q-33 14 -59.5 25t-49.5 11q-37 0 -60.5 -23.5t-33.5 -90.5z" />
<glyph unicode="&#xf2;" horiz-adv-x="1093" d="M55 373q0 174 46 304t121 216t173.5 128t202.5 42q98 0 168 -34t114 -91t64.5 -131t20.5 -154q0 -174 -45.5 -304t-120 -216t-173 -128t-204.5 -42q-98 0 -168 34t-114 91t-64.5 131t-20.5 154zM240 350q0 -117 48 -185.5t152 -68.5q86 0 150.5 50.5t106.5 132t62.5 186 t20.5 211.5q0 121 -51 187.5t-149 66.5q-86 0 -150.5 -50.5t-106.5 -132t-62.5 -186t-20.5 -211.5zM442 1544l156 86l170 -387l-101 -49z" />
<glyph unicode="&#xf3;" horiz-adv-x="1093" d="M55 373q0 174 46 304t121 216t173.5 128t202.5 42q98 0 168 -34t114 -91t64.5 -131t20.5 -154q0 -174 -45.5 -304t-120 -216t-173 -128t-204.5 -42q-98 0 -168 34t-114 91t-64.5 131t-20.5 154zM240 350q0 -117 48 -185.5t152 -68.5q86 0 150.5 50.5t106.5 132t62.5 186 t20.5 211.5q0 121 -51 187.5t-149 66.5q-86 0 -150.5 -50.5t-106.5 -132t-62.5 -186t-20.5 -211.5zM516 1262l289 370l135 -114l-338 -326z" />
<glyph unicode="&#xf4;" horiz-adv-x="1093" d="M55 373q0 174 46 304t121 216t173.5 128t202.5 42q98 0 168 -34t114 -91t64.5 -131t20.5 -154q0 -174 -45.5 -304t-120 -216t-173 -128t-204.5 -42q-98 0 -168 34t-114 91t-64.5 131t-20.5 154zM240 350q0 -117 48 -185.5t152 -68.5q86 0 150.5 50.5t106.5 132t62.5 186 t20.5 211.5q0 121 -51 187.5t-149 66.5q-86 0 -150.5 -50.5t-106.5 -132t-62.5 -186t-20.5 -211.5zM344 1235l258 350h139l153 -364l-102 -43l-139 243l-232 -241z" />
<glyph unicode="&#xf5;" horiz-adv-x="1093" d="M55 373q0 174 46 304t121 216t173.5 128t202.5 42q98 0 168 -34t114 -91t64.5 -131t20.5 -154q0 -174 -45.5 -304t-120 -216t-173 -128t-204.5 -42q-98 0 -168 34t-114 91t-64.5 131t-20.5 154zM240 350q0 -117 48 -185.5t152 -68.5q86 0 150.5 50.5t106.5 132t62.5 186 t20.5 211.5q0 121 -51 187.5t-149 66.5q-86 0 -150.5 -50.5t-106.5 -132t-62.5 -186t-20.5 -211.5zM243 1243q20 123 69.5 186.5t137.5 63.5q35 0 71 -13.5t69 -27.5l79 -35q33 -14 59.5 -24.5t49.5 -10.5q37 0 60.5 24t33.5 91l105 -14q-20 -123 -69.5 -186.5t-137.5 -63.5 q-35 0 -71 12t-69 27l-79 35q-33 14 -59.5 25t-49.5 11q-37 0 -60.5 -23.5t-33.5 -90.5z" />
<glyph unicode="&#xf6;" horiz-adv-x="1093" d="M55 373q0 174 46 304t121 216t173.5 128t202.5 42q98 0 168 -34t114 -91t64.5 -131t20.5 -154q0 -174 -45.5 -304t-120 -216t-173 -128t-204.5 -42q-98 0 -168 34t-114 91t-64.5 131t-20.5 154zM240 350q0 -117 48 -185.5t152 -68.5q86 0 150.5 50.5t106.5 132t62.5 186 t20.5 211.5q0 121 -51 187.5t-149 66.5q-86 0 -150.5 -50.5t-106.5 -132t-62.5 -186t-20.5 -211.5zM330 1350q0 72 35.5 113.5t93.5 41.5q53 0 80.5 -34.5t27.5 -81.5q0 -70 -39 -111t-92 -41q-51 0 -78.5 34t-27.5 79zM731 1350q0 72 36 113.5t93 41.5q53 0 80.5 -34.5 t27.5 -81.5q0 -70 -39 -111t-92 -41q-51 0 -78.5 34t-27.5 79z" />
<glyph unicode="&#xf7;" d="M150 614v164h915v-164h-915zM477 1055q0 61 31 101t98 40q66 0 96.5 -40t30.5 -101t-30.5 -101.5t-96.5 -40.5q-68 0 -98.5 40t-30.5 102zM479 346q0 61 31 101t98 40q66 0 96.5 -39.5t30.5 -101.5q0 -61 -30.5 -101t-96.5 -40q-68 0 -98.5 40t-30.5 101z" />
<glyph unicode="&#xf8;" horiz-adv-x="1093" d="M37 -213l145 260q-63 59 -92 144t-29 182q0 174 46.5 304t121 216t173 128t202.5 42q74 0 135 -23l95 170h165l-137 -245q57 -59 83 -140.5t26 -171.5q0 -174 -45 -304t-120 -216t-173 -128t-205 -42q-63 0 -119 17l-106 -193h-166zM246 350q0 -84 24 -145l398 708 q-39 16 -82 17q-86 0 -150.5 -50.5t-106.5 -132t-62.5 -186t-20.5 -211.5zM381 104q25 -8 65 -8q86 0 151 50.5t106.5 132t62 186t20.5 211.5q0 35 -5 64.5t-13 56.5z" />
<glyph unicode="&#xf9;" horiz-adv-x="1114" d="M98 221q0 18 2 44t5.5 53.5t6.5 54t7 47.5l108 606h176l-104 -584q-4 -18 -8 -44.5t-7 -55.5t-6.5 -54.5t-3.5 -39.5q0 -139 144 -139q117 0 193.5 70.5t105.5 228.5l108 618h176l-145 -827l68 -156l-146 -76l-86 148q-27 -29 -57.5 -55.5t-68.5 -48t-85 -35t-106 -13.5 q-74 0 -127 19.5t-86 54.5t-48.5 82t-15.5 102zM430 1544l156 86l170 -387l-101 -49z" />
<glyph unicode="&#xfa;" horiz-adv-x="1114" d="M98 221q0 18 2 44t5.5 53.5t6.5 54t7 47.5l108 606h176l-104 -584q-4 -18 -8 -44.5t-7 -55.5t-6.5 -54.5t-3.5 -39.5q0 -139 144 -139q117 0 193.5 70.5t105.5 228.5l108 618h176l-145 -827l68 -156l-146 -76l-86 148q-27 -29 -57.5 -55.5t-68.5 -48t-85 -35t-106 -13.5 q-74 0 -127 19.5t-86 54.5t-48.5 82t-15.5 102zM561 1262l289 370l135 -114l-338 -326z" />
<glyph unicode="&#xfb;" horiz-adv-x="1114" d="M98 221q0 18 2 44t5.5 53.5t6.5 54t7 47.5l108 606h176l-104 -584q-4 -18 -8 -44.5t-7 -55.5t-6.5 -54.5t-3.5 -39.5q0 -139 144 -139q117 0 193.5 70.5t105.5 228.5l108 618h176l-145 -827l68 -156l-146 -76l-86 148q-27 -29 -57.5 -55.5t-68.5 -48t-85 -35t-106 -13.5 q-74 0 -127 19.5t-86 54.5t-48.5 82t-15.5 102zM365 1235l258 350h139l153 -364l-102 -43l-139 243l-232 -241z" />
<glyph unicode="&#xfc;" horiz-adv-x="1114" d="M98 221q0 18 2 44t5.5 53.5t6.5 54t7 47.5l108 606h176l-104 -584q-4 -18 -8 -44.5t-7 -55.5t-6.5 -54.5t-3.5 -39.5q0 -139 144 -139q117 0 193.5 70.5t105.5 228.5l108 618h176l-145 -827l68 -156l-146 -76l-86 148q-27 -29 -57.5 -55.5t-68.5 -48t-85 -35t-106 -13.5 q-74 0 -127 19.5t-86 54.5t-48.5 82t-15.5 102zM353 1350q0 72 35.5 113.5t93.5 41.5q53 0 80.5 -34.5t27.5 -81.5q0 -70 -39 -111t-92 -41q-51 0 -78.5 34t-27.5 79zM754 1350q0 72 36 113.5t93 41.5q53 0 80.5 -34.5t27.5 -81.5q0 -70 -39 -111t-92 -41q-51 0 -78.5 34 t-27.5 79z" />
<glyph unicode="&#xfd;" horiz-adv-x="1001" d="M-82 -422l47 131q33 -14 68 -23.5t82 -9.5q51 0 87 13.5t63.5 38t49 61.5t43.5 86l62 141h-12q-121 0 -174.5 76t-65.5 221l-82 705l184 31l76 -732q4 -53 13.5 -87.5t23.5 -54t33.5 -27t44.5 -7.5h14l363 910l163 -33l-487 -1178q-61 -152 -153.5 -225.5t-237.5 -73.5 q-72 0 -118 9.5t-87 27.5zM479 1262l289 370l135 -114l-338 -326z" />
<glyph unicode="&#xfe;" horiz-adv-x="1118" d="M4 -446l348 1953h174l-102 -573q18 20 48 42.5t68 42t81 32t90 12.5q143 0 227 -92t84 -252q0 -184 -49 -324.5t-133 -236t-196 -143.5t-238 -48q-39 0 -75 6.5t-73 16.5l-78 -436h-176zM281 119q27 -8 62.5 -15.5t70.5 -7.5q82 0 157.5 40t134 116t93.5 184.5t35 245.5 q0 70 -11.5 115t-34 71.5t-55.5 36.5t-76 10q-45 0 -90 -17t-85 -51t-68.5 -86t-40.5 -120z" />
<glyph unicode="&#xff;" horiz-adv-x="1001" d="M-82 -422l47 131q33 -14 68 -23.5t82 -9.5q51 0 87 13.5t63.5 38t49 61.5t43.5 86l62 141h-12q-121 0 -174.5 76t-65.5 221l-82 705l184 31l76 -732q4 -53 13.5 -87.5t23.5 -54t33.5 -27t44.5 -7.5h14l363 910l163 -33l-487 -1178q-61 -152 -153.5 -225.5t-237.5 -73.5 q-72 0 -118 9.5t-87 27.5zM279 1350q0 72 35.5 113.5t93.5 41.5q53 0 80.5 -34.5t27.5 -81.5q0 -70 -39 -111t-92 -41q-51 0 -78.5 34t-27.5 79zM680 1350q0 72 36 113.5t93 41.5q53 0 80.5 -34.5t27.5 -81.5q0 -70 -39 -111t-92 -41q-51 0 -78.5 34t-27.5 79z" />
<glyph unicode="&#x152;" horiz-adv-x="1968" d="M78 543q0 195 52 369.5t147.5 307t227.5 210t292 77.5q135 0 229 -49t143 -127l27 146h823l-28 -152h-635l-84 -477h473l-29 -156h-473l-96 -536h655l-26 -156h-842l22 131q-25 -31 -65.5 -60.5t-93 -54t-116 -39t-132.5 -14.5q-123 0 -212 42t-146.5 119t-85 183.5 t-27.5 235.5zM283 510q0 -182 72.5 -287.5t226.5 -105.5q74 0 141.5 21.5t122.5 58t97 86t63 104.5l129 748q-6 39 -35 77.5t-74 70.5t-102.5 51.5t-122.5 19.5q-127 0 -224.5 -70t-163 -186.5t-98 -269t-32.5 -318.5z" />
<glyph unicode="&#x153;" horiz-adv-x="1658" d="M61 373q0 174 47.5 304t123 216t171 128t191.5 42q68 0 119 -16.5t91 -44t68.5 -66.5t51.5 -84q76 94 172 152.5t225 58.5q80 0 134 -19.5t87 -50t46.5 -71.5t13.5 -84q0 -94 -38 -168t-104.5 -124t-158 -77t-197.5 -27q-29 0 -66 1t-86 6q-2 -18 -2 -37v-29 q0 -135 55.5 -207t170.5 -72q76 0 130 20.5t101 43.5l41 -129q-55 -29 -127 -52.5t-168 -23.5q-72 0 -127 16.5t-97 43t-71 61.5t-45 72q-70 -90 -165 -141.5t-210 -51.5q-102 0 -173.5 34t-117 91t-66 131t-20.5 154zM246 350q0 -121 50 -187.5t142 -66.5q90 0 155.5 50.5 t108.5 132t63.5 186t20.5 211.5q0 121 -50 187.5t-142 66.5q-90 0 -155.5 -50.5t-108.5 -132t-63.5 -186t-20.5 -211.5zM971 567q23 -2 60.5 -3t78.5 -1q61 0 118.5 16.5t101.5 48t70.5 78t26.5 105.5q0 119 -135 119q-61 0 -112.5 -31t-93.5 -82t-71.5 -116.5t-43.5 -133.5 z" />
<glyph unicode="&#x178;" horiz-adv-x="1073" d="M129 1458l184 37l172 -735q8 -31 14.5 -41t16.5 -10t21.5 11t29.5 42l441 729l163 -39l-462 -750q-27 -41 -45.5 -66.5t-34 -39.5t-28.5 -20.5t-26 -8.5l-98 -567h-188l102 571q-35 8 -53.5 52.5t-34.5 113.5zM365 1694q0 72 37.5 118t101.5 46q47 0 72.5 -32t25.5 -79 q0 -72 -40 -115t-99 -43q-47 0 -72.5 30t-25.5 75zM766 1694q0 72 38 118t101 46q47 0 72.5 -32t25.5 -79q0 -72 -40 -115t-99 -43q-47 0 -72.5 30t-25.5 75z" />
<glyph unicode="&#x2c6;" horiz-adv-x="1024" d="M238 1235l258 350h139l153 -364l-102 -43l-139 243l-232 -241z" />
<glyph unicode="&#x2dc;" horiz-adv-x="1024" d="M145 1243q20 123 69.5 186.5t137.5 63.5q35 0 71 -13.5t69 -27.5l79 -35q33 -14 59.5 -24.5t49.5 -10.5q37 0 60.5 24t33.5 91l105 -14q-20 -123 -69.5 -186.5t-137.5 -63.5q-35 0 -71 12t-69 27l-79 35q-33 14 -59.5 25t-49.5 11q-37 0 -60.5 -23.5t-33.5 -90.5z" />
<glyph unicode="&#x2000;" horiz-adv-x="1043" />
<glyph unicode="&#x2001;" horiz-adv-x="2087" />
<glyph unicode="&#x2002;" horiz-adv-x="1043" />
<glyph unicode="&#x2003;" horiz-adv-x="2087" />
<glyph unicode="&#x2004;" horiz-adv-x="695" />
<glyph unicode="&#x2005;" horiz-adv-x="521" />
<glyph unicode="&#x2006;" horiz-adv-x="347" />
<glyph unicode="&#x2007;" horiz-adv-x="347" />
<glyph unicode="&#x2008;" horiz-adv-x="260" />
<glyph unicode="&#x2009;" horiz-adv-x="417" />
<glyph unicode="&#x200a;" horiz-adv-x="115" />
<glyph unicode="&#x2010;" horiz-adv-x="866" d="M123 557l31 174h577l-31 -174h-577z" />
<glyph unicode="&#x2011;" horiz-adv-x="866" d="M123 557l31 174h577l-31 -174h-577z" />
<glyph unicode="&#x2012;" horiz-adv-x="866" d="M123 557l31 174h577l-31 -174h-577z" />
<glyph unicode="&#x2013;" horiz-adv-x="1024" d="M-25 532l31 173h1024l-31 -173h-1024z" />
<glyph unicode="&#x2014;" horiz-adv-x="2048" d="M-35 532l31 173h2048l-31 -173h-2048z" />
<glyph unicode="&#x2018;" horiz-adv-x="460" d="M162 1094q0 47 23.5 102t84.5 154l95 151l86 -33l-105 -225q35 -8 58.5 -33.5t23.5 -66.5q0 -70 -40 -115t-112 -45q-59 0 -86.5 30.5t-27.5 80.5z" />
<glyph unicode="&#x2019;" horiz-adv-x="471" d="M182 1016l105 225q-35 8 -58.5 33.5t-23.5 66.5q0 70 40 115t111 45q59 0 87 -30.5t28 -79.5q0 -47 -23.5 -102.5t-85.5 -153.5l-94 -152z" />
<glyph unicode="&#x201a;" horiz-adv-x="432" d="M-33 -235l105 225q-35 8 -58.5 33.5t-23.5 66.5q0 70 40 115t111 45q59 0 87 -30.5t28 -79.5q0 -47 -23.5 -102.5t-85.5 -153.5l-94 -152z" />
<glyph unicode="&#x201c;" horiz-adv-x="815" d="M162 1094q0 47 23.5 102t84.5 154l95 151l86 -33l-105 -225q35 -8 58.5 -33.5t23.5 -66.5q0 -70 -40 -115t-112 -45q-59 0 -86.5 30.5t-27.5 80.5zM516 1094q0 47 23.5 102t84.5 154l95 151l86 -33l-105 -225q35 -8 58.5 -33.5t23.5 -66.5q0 -70 -40 -115t-112 -45 q-59 0 -86.5 30.5t-27.5 80.5z" />
<glyph unicode="&#x201d;" horiz-adv-x="825" d="M182 1016l105 225q-35 8 -58.5 33.5t-23.5 66.5q0 70 40 115t111 45q59 0 87 -30.5t28 -79.5q0 -47 -23.5 -102.5t-85.5 -153.5l-94 -152zM536 1016l105 225q-35 8 -58.5 33.5t-23.5 66.5q0 70 40 115t111 45q59 0 87 -30.5t28 -79.5q0 -47 -23.5 -102.5t-85.5 -153.5 l-94 -152z" />
<glyph unicode="&#x201e;" horiz-adv-x="788" d="M-33 -235l105 225q-35 8 -58.5 33.5t-23.5 66.5q0 70 40 115t111 45q59 0 87 -30.5t28 -79.5q0 -47 -23.5 -102.5t-85.5 -153.5l-94 -152zM319 -235l105 225q-35 8 -58.5 33.5t-23.5 66.5q0 70 40 115t111 45q59 0 87 -30.5t28 -79.5q0 -47 -23.5 -102.5t-85.5 -153.5 l-94 -152z" />
<glyph unicode="&#x2022;" horiz-adv-x="1024" d="M299 678q0 98 51 159.5t164 61.5q111 0 161 -61.5t50 -159.5t-50 -159.5t-161 -61.5q-113 0 -164 61.5t-51 159.5z" />
<glyph unicode="&#x2026;" horiz-adv-x="1605" d="M20 82q0 74 38 119t98 45q55 0 84.5 -37t29.5 -86q0 -74 -40 -116t-97 -42q-53 0 -83 35t-30 82zM579 82q0 74 38 119t98 45q55 0 84.5 -37t29.5 -86q0 -74 -40 -116t-97 -42q-53 0 -83 35t-30 82zM1140 82q0 74 38 119t98 45q55 0 84.5 -37t29.5 -86q0 -74 -40 -116 t-97 -42q-53 0 -83 35t-30 82z" />
<glyph unicode="&#x202f;" horiz-adv-x="417" />
<glyph unicode="&#x2039;" horiz-adv-x="569" d="M51 559q0 72 38 116t99 91l232 174l98 -76l-246 -202q-35 -29 -47 -50.5t-12 -44.5q0 -16 6 -32.5t25 -38.5l178 -217l-119 -70l-158 178q-43 43 -68.5 81t-25.5 91z" />
<glyph unicode="&#x203a;" horiz-adv-x="573" d="M4 283l246 211q35 29 47 49t12 45q0 35 -30 71l-179 209l119 70l158 -170q41 -41 67.5 -80t26.5 -92q0 -66 -39 -113t-98 -94l-232 -182z" />
<glyph unicode="&#x205f;" horiz-adv-x="521" />
<glyph unicode="&#x20ac;" d="M96 492l25 135h758l-25 -135h-426q0 -186 57.5 -278.5t194.5 -92.5q88 0 156.5 19.5t146.5 64.5l51 -135q-76 -49 -168 -78t-200 -29q-106 0 -184.5 33t-130.5 93.5t-77.5 143t-25.5 183.5q0 23 1 44t1 32h-154zM152 803l24 135h137q66 254 219.5 396.5t393.5 142.5 q111 0 185.5 -31t125.5 -72l-78 -121q-41 29 -98 52.5t-137 23.5q-68 0 -130.5 -18.5t-117.5 -62.5t-100.5 -119.5t-77.5 -190.5h436l-23 -135h-759z" />
<glyph unicode="&#x2122;" horiz-adv-x="1855" d="M160 1350v127h655v-127h-248v-699h-161v699h-246zM903 651l51 826h142l186 -418q8 -16 15.5 -22.5t17.5 -6.5t18 6t17 23l180 418h143l51 -826h-147l-33 541l-90 -197q-33 -70 -64.5 -92t-76.5 -22q-43 0 -76 21.5t-63 86.5l-95 205l-28 -543h-148z" />
<glyph unicode="&#xe000;" horiz-adv-x="1044" d="M0 0v1044h1044v-1044h-1044z" />
</font>
</defs>
</svg>
