<svg id="Camada_1" data-name="Camada 1" xmlns="http://www.w3.org/2000/svg" viewBox="0 0 101 72"><defs><style>.cls-1{fill:#a7bbe0;}.cls-2{fill:#6387c1;}.cls-3{fill:#170291;}.cls-4{fill:#142050;}.cls-5{fill:#fff;}.cls-6{fill:#050505;}</style></defs><title>logo2</title><circle class="cls-1" cx="54.7" cy="41.69" r="24.55"/><path class="cls-2" d="M76.55,38.63a22.06,22.06,0,0,0-43.7,0H31.74c0,13.87,10.3,25.15,23,25.15s23-11.28,23-25.15Z"/><circle class="cls-3" cx="54.7" cy="41.69" r="18.58"/><circle class="cls-4" cx="54.7" cy="41.69" r="15.61"/><circle cx="54.7" cy="41.69" r="10.54"/><path class="cls-5" d="M44,37.18l-2-.27-3.53-.47A21.19,21.19,0,0,0,38,42.82a10.42,10.42,0,0,0,.19,1.66l5.31-.94A10.43,10.43,0,0,1,44,37.18Z"/><path class="cls-6" d="M98.8,35.94a115,115,0,0,0-13.88-7.26A86.89,86.89,0,0,0,54.14,21a77.59,77.59,0,0,0-15.89.84A80.15,80.15,0,0,0,22.75,26,89.07,89.07,0,0,0-5,43,67,67,0,0,1,6.85,31.25a77.32,77.32,0,0,1,14.33-8.91,72.45,72.45,0,0,1,16.09-5.59A70.75,70.75,0,0,1,54.34,15c11.51.09,22.83,3.09,33.26,7.61a123.18,123.18,0,0,1,11.31,5.86"/><path class="cls-6" d="M99.31,56.1a143,143,0,0,1-12.89,6.53,86.25,86.25,0,0,1-16.33,5.62,42.42,42.42,0,0,1-8.6,1.07A21,21,0,0,1,53,67.85c5.59,1.26,11.19-.12,16.42-1.86a102.59,102.59,0,0,0,15.22-6.93Q92,55,99,50.33"/></svg>