<svg id="Camada_1" data-name="Camada 1" xmlns="http://www.w3.org/2000/svg" xmlns:xlink="http://www.w3.org/1999/xlink" viewBox="0 0 344 182"><defs><style>.cls-1,.cls-2{font-size:40px;}.cls-1,.cls-2,.cls-4{font-family:BodoniFLF-Bold, BodoniFLF;font-weight:700;}.cls-2{letter-spacing:-0.07em;}.cls-3{letter-spacing:0em;}.cls-4{font-size:27px;}.cls-5{font-size:20px;font-family:BodoniFLF-Roman, BodoniFLF;}.cls-6{letter-spacing:-0.02em;}.cls-7{letter-spacing:-0.01em;}.cls-8{letter-spacing:0em;}.cls-9{fill:url(#Gradiente_sem_nome_41);}.cls-10{fill:#a7bbe0;}.cls-11{fill:#7db6d3;}.cls-12{fill:#00a78d;}.cls-13{fill:#154478;}.cls-14{fill:#fff;}.cls-15{fill:#050505;}</style><linearGradient id="Gradiente_sem_nome_41" x1="144.5" y1="88.4" x2="184.86" y2="1.84" gradientUnits="userSpaceOnUse"><stop offset="0" stop-color="#0071bc"/><stop offset="0.05" stop-color="#2785c4" stop-opacity="0.83"/><stop offset="0.13" stop-color="#62a4cf" stop-opacity="0.58"/><stop offset="0.21" stop-color="#93bed9" stop-opacity="0.37"/><stop offset="0.28" stop-color="#bad1e0" stop-opacity="0.21"/><stop offset="0.36" stop-color="#d5e0e6" stop-opacity="0.09"/><stop offset="0.43" stop-color="#e5e8e9" stop-opacity="0.02"/><stop offset="0.5" stop-color="#ebebea" stop-opacity="0"/><stop offset="0.59" stop-color="#e7e9e9" stop-opacity="0.02"/><stop offset="0.67" stop-color="#dbe3e7" stop-opacity="0.07"/><stop offset="0.74" stop-color="#c6d8e3" stop-opacity="0.16"/><stop offset="0.8" stop-color="#a8c8dd" stop-opacity="0.28"/><stop offset="0.86" stop-color="#82b5d5" stop-opacity="0.45"/><stop offset="0.92" stop-color="#539ccc" stop-opacity="0.64"/><stop offset="0.97" stop-color="#1d80c2" stop-opacity="0.88"/><stop offset="1" stop-color="#0071bc"/></linearGradient></defs><title>Marca</title><text class="cls-1" transform="translate(14.5 118)">Calixto</text><text class="cls-2" transform="translate(192 118)">F<tspan class="cls-3" x="19.64" y="0">ormiga</tspan></text><text class="cls-4" transform="translate(156 118)">&amp;</text><polygon points="14 135.85 24.09 135.47 34.19 135.17 54.38 134.6 94.75 133.89 104.84 133.71 114.94 133.65 135.13 133.53 175.5 133.3 215.88 133.53 236.06 133.65 246.16 133.72 256.25 133.9 296.63 134.61 316.81 135.18 326.91 135.47 337 135.85 337 136.15 175.5 136.3 14 136.15 14 135.85"/><text class="cls-5" transform="translate(78 170)">CLÍN<tspan class="cls-6" x="44.48" y="0">I</tspan><tspan x="51.18" y="0">CA </tspan><tspan class="cls-7" x="82.04" y="0">D</tspan><tspan class="cls-8" x="95.12" y="0">E OLHOS</tspan></text><path class="cls-9" d="M128.75,51.77c-.14-.06.14-.41,0-.48V81.05h71.87V9.19H128.75V34.79"/><circle class="cls-10" cx="164.66" cy="43.77" r="20.01"/><path class="cls-11" d="M182.47,41.27a18,18,0,0,0-35.63,0h-.9c0,11.31,8.4,20.5,18.72,20.5s18.72-9.2,18.72-20.5Z"/><circle class="cls-12" cx="164.66" cy="43.77" r="15.15"/><circle class="cls-13" cx="164.66" cy="43.77" r="12.72"/><circle cx="164.66" cy="43.77" r="8.59"/><path class="cls-14" d="M156,40.09l-1.66-.22-2.88-.38a17.28,17.28,0,0,0-.38,5.2c0,.45.08.9.15,1.35l4.33-.76a8.5,8.5,0,0,1,.43-5.18Z"/><path class="cls-15" d="M200.61,39.08a93.76,93.76,0,0,0-11.31-5.92,70.84,70.84,0,0,0-25.09-6.3,63.26,63.26,0,0,0-13,.69,65.34,65.34,0,0,0-12.63,3.4A72.62,72.62,0,0,0,116,44.82a54.59,54.59,0,0,1,9.66-9.58A63,63,0,0,1,137.34,28a59.06,59.06,0,0,1,13.12-4.55A57.68,57.68,0,0,1,164.37,22a70,70,0,0,1,27.11,6.2A100.42,100.42,0,0,1,200.71,33"/><path class="cls-15" d="M201,55.52a116.55,116.55,0,0,1-10.51,5.33,70.32,70.32,0,0,1-13.31,4.58,34.58,34.58,0,0,1-7,.87,17.08,17.08,0,0,1-6.89-1.2c4.56,1,9.12-.1,13.39-1.51a83.63,83.63,0,0,0,12.38-5.66q6-3.32,11.67-7.12"/></svg>