<svg id="Camada_1" data-name="Camada 1" xmlns="http://www.w3.org/2000/svg" xmlns:xlink="http://www.w3.org/1999/xlink" viewBox="0 0 103 84"><defs><style>.cls-1{fill:url(#Gradiente_sem_nome);}.cls-2{fill:#a7bbe0;}.cls-3{fill:#7db6d3;}.cls-4{fill:#00a78d;}.cls-5{fill:#154478;}.cls-6{fill:#fff;}.cls-7{fill:#050505;}</style><linearGradient id="Gradiente_sem_nome" x1="33.51" y1="596.6" x2="73.86" y2="683.16" gradientTransform="matrix(1, 0, 0, -1, 0, 682)" gradientUnits="userSpaceOnUse"><stop offset="0" stop-color="#0071bc"/><stop offset="0.05" stop-color="#2785c4" stop-opacity="0.83"/><stop offset="0.13" stop-color="#62a4cf" stop-opacity="0.58"/><stop offset="0.21" stop-color="#93bed9" stop-opacity="0.37"/><stop offset="0.28" stop-color="#bad1e0" stop-opacity="0.21"/><stop offset="0.36" stop-color="#d5e0e6" stop-opacity="0.09"/><stop offset="0.43" stop-color="#e5e8e9" stop-opacity="0.02"/><stop offset="0.5" stop-color="#ebebea" stop-opacity="0"/><stop offset="0.59" stop-color="#e7e9e9" stop-opacity="0.02"/><stop offset="0.67" stop-color="#dbe3e7" stop-opacity="0.07"/><stop offset="0.74" stop-color="#c6d8e3" stop-opacity="0.16"/><stop offset="0.8" stop-color="#a8c8dd" stop-opacity="0.28"/><stop offset="0.86" stop-color="#82b5d5" stop-opacity="0.45"/><stop offset="0.92" stop-color="#539ccc" stop-opacity="0.64"/><stop offset="0.97" stop-color="#1d80c2" stop-opacity="0.88"/><stop offset="1" stop-color="#0071bc"/></linearGradient></defs><title>marca-03</title><path class="cls-1" d="M17.75,48.77c-.14-.06.14-.41,0-.48V78.05H89.62V6.19H17.75v25.6"/><circle class="cls-2" cx="53.66" cy="40.77" r="20.01"/><path class="cls-3" d="M71.47,38.27a18,18,0,0,0-35.63,0h-.9c0,11.31,8.4,20.5,18.72,20.5s18.72-9.2,18.72-20.5Z"/><circle class="cls-4" cx="53.66" cy="40.77" r="15.15"/><circle class="cls-5" cx="53.66" cy="40.77" r="12.72"/><circle cx="53.66" cy="40.77" r="8.59"/><path class="cls-6" d="M45,37.09l-1.66-.22-2.88-.38a17.28,17.28,0,0,0-.38,5.2A8.85,8.85,0,0,0,40.23,43l4.33-.76A8.5,8.5,0,0,1,45,37.1Z"/><path class="cls-7" d="M89.61,36.08A93.76,93.76,0,0,0,78.3,30.16a70.84,70.84,0,0,0-25.09-6.3,63.26,63.26,0,0,0-13,.69A65.34,65.34,0,0,0,27.58,28,72.62,72.62,0,0,0,5,41.82a54.59,54.59,0,0,1,9.66-9.58A63,63,0,0,1,26.34,25a59.06,59.06,0,0,1,13.12-4.55A57.68,57.68,0,0,1,53.37,19a70,70,0,0,1,27.11,6.2A100.42,100.42,0,0,1,89.71,30"/><path class="cls-7" d="M90,52.52a116.55,116.55,0,0,1-10.51,5.33,70.32,70.32,0,0,1-13.31,4.58,34.58,34.58,0,0,1-7,.87,17.08,17.08,0,0,1-6.89-1.2c4.56,1,9.12-.1,13.39-1.51a83.63,83.63,0,0,0,12.38-5.66q6-3.32,11.67-7.12"/></svg>