<svg id="Camada_1" data-name="Camada 1" xmlns="http://www.w3.org/2000/svg" xmlns:xlink="http://www.w3.org/1999/xlink" viewBox="0 0 325.61 222.52"><defs><style>.cls-1,.cls-2,.cls-3,.cls-4,.cls-5,.cls-6,.cls-7{isolation:isolate;}.cls-1,.cls-2,.cls-4{font-size:30px;font-family:BodoniMT-Bold, Bodoni MT;font-weight:700;}.cls-2{letter-spacing:-0.07em;}.cls-4{letter-spacing:0.04em;}.cls-5,.cls-6,.cls-7{font-size:20px;font-family:BodoniMT, Bodoni MT;}.cls-6{letter-spacing:-0.02em;}.cls-7{letter-spacing:-0.01em;}.cls-8{fill:url(#Gradiente_sem_nome);}.cls-9{fill:#a7bbe0;}.cls-10{fill:#7db6d3;}.cls-11{fill:#00a78d;}.cls-12{fill:#154478;}.cls-13{fill:#fff;}.cls-14{fill:#050505;}</style><linearGradient id="Gradiente_sem_nome" x1="32.51" y1="638.4" x2="72.86" y2="551.84" gradientTransform="translate(-6 -557.19)" gradientUnits="userSpaceOnUse"><stop offset="0" stop-color="#0071bc"/><stop offset="0.05" stop-color="#2785c4" stop-opacity="0.83"/><stop offset="0.13" stop-color="#62a4cf" stop-opacity="0.58"/><stop offset="0.21" stop-color="#93bed9" stop-opacity="0.37"/><stop offset="0.28" stop-color="#bad1e0" stop-opacity="0.21"/><stop offset="0.36" stop-color="#d5e0e6" stop-opacity="0.09"/><stop offset="0.43" stop-color="#e5e8e9" stop-opacity="0.02"/><stop offset="0.5" stop-color="#ebebea" stop-opacity="0"/><stop offset="0.59" stop-color="#e7e9e9" stop-opacity="0.02"/><stop offset="0.67" stop-color="#dbe3e7" stop-opacity="0.07"/><stop offset="0.74" stop-color="#c6d8e3" stop-opacity="0.16"/><stop offset="0.8" stop-color="#a8c8dd" stop-opacity="0.28"/><stop offset="0.86" stop-color="#82b5d5" stop-opacity="0.45"/><stop offset="0.92" stop-color="#539ccc" stop-opacity="0.64"/><stop offset="0.97" stop-color="#1d80c2" stop-opacity="0.88"/><stop offset="1" stop-color="#0071bc"/></linearGradient></defs><title>Marca-03</title><text class="cls-1" transform="translate(83.5 213.81)">Calixto</text><text class="cls-2" transform="translate(217 214.81)">F</text><g class="cls-3"><text class="cls-1" transform="translate(236.64 214.81)">o</text><text class="cls-4" transform="translate(251.35 214.81)">r</text><text class="cls-1" transform="translate(263.68 214.81)">miga</text></g><text class="cls-1" transform="translate(184 213.81)">&amp;</text><text class="cls-5" transform="translate(110 177.81)">CLÍN</text><text class="cls-6" transform="translate(154.48 177.81)">I</text><text class="cls-5" transform="translate(161.18 177.81)">CA</text><text class="cls-7" transform="translate(192.04 177.81)">D</text><text class="cls-5" transform="translate(205.12 177.81)">E OLHOS</text><path class="cls-8" d="M10.75,44.58c-.14-.06.14-.41,0-.48V73.86H82.62V2H10.75V27.6" transform="translate(2 -2)"/><circle class="cls-9" cx="48.66" cy="34.58" r="20.01"/><path class="cls-10" d="M64.47,34.08a18,18,0,0,0-35.63,0h-.9c0,11.31,8.4,20.5,18.72,20.5s18.72-9.2,18.72-20.5Z" transform="translate(2 -2)"/><circle class="cls-11" cx="48.66" cy="34.58" r="15.15"/><circle class="cls-12" cx="48.66" cy="34.58" r="12.72"/><circle cx="48.66" cy="34.58" r="8.59"/><path class="cls-13" d="M38,32.9l-1.66-.22-2.88-.38a17.28,17.28,0,0,0-.38,5.2,8.85,8.85,0,0,0,.15,1.31l4.33-.76A8.5,8.5,0,0,1,38,32.91Z" transform="translate(2 -2)"/><path class="cls-14" d="M82.61,31.89A93.76,93.76,0,0,0,71.3,26a70.84,70.84,0,0,0-25.09-6.3,63.26,63.26,0,0,0-13,.69,65.34,65.34,0,0,0-12.63,3.45A72.62,72.62,0,0,0-2,37.63,54.59,54.59,0,0,1,7.66,28a63,63,0,0,1,11.68-7.24,59.06,59.06,0,0,1,13.12-4.55,57.68,57.68,0,0,1,13.91-1.45A70,70,0,0,1,73.48,21a100.42,100.42,0,0,1,9.23,4.8" transform="translate(2 -2)"/><path class="cls-14" d="M83,48.33a116.55,116.55,0,0,1-10.51,5.33,70.32,70.32,0,0,1-13.31,4.58,34.58,34.58,0,0,1-7,.87,17.08,17.08,0,0,1-6.89-1.2c4.56,1,9.12-.1,13.39-1.51a83.63,83.63,0,0,0,12.38-5.66q6-3.32,11.67-7.12" transform="translate(2 -2)"/></svg>