<svg id="Camada_1" data-name="Camada 1" xmlns="http://www.w3.org/2000/svg" viewBox="0 0 40.67 40.67"><defs><style>.cls-1{fill:#fff;}</style></defs><title>takao_menu</title><path class="cls-1" d="M38,8.4A1.32,1.32,0,0,0,36.6,7H5.8A1.32,1.32,0,0,0,4.4,8.4V11.2a1.32,1.32,0,0,0,1.4,1.4H36.6A1.32,1.32,0,0,0,38,11.2V8.4Zm0,0"/><path class="cls-1" d="M38,19.6a1.32,1.32,0,0,0-1.4-1.4H5.8a1.32,1.32,0,0,0-1.4,1.4v2.8a1.32,1.32,0,0,0,1.4,1.4H36.6A1.32,1.32,0,0,0,38,22.4V19.6Zm0,0"/><path class="cls-1" d="M38,30.8a1.32,1.32,0,0,0-1.4-1.4H5.8a1.32,1.32,0,0,0-1.4,1.4V33.6A1.32,1.32,0,0,0,5.8,35H36.6A1.32,1.32,0,0,0,38,33.6V30.8Zm0,0"/></svg>