<svg id="Camada_1" data-name="Camada 1" xmlns="http://www.w3.org/2000/svg" viewBox="0 0 40.67 40.67"><defs><style>.cls-1{fill:#fff;}</style></defs><title>takao_menu</title><path class="cls-1" d="M24.41,21.09a0.57,0.57,0,0,1,0-.83l8.91-8.91a1.29,1.29,0,0,0,.35-0.83,1.29,1.29,0,0,0-.35-0.84L31.66,8a1.27,1.27,0,0,0-.83-0.35A1.08,1.08,0,0,0,30,8l-8.91,8.91a0.57,0.57,0,0,1-.83,0L11.35,8a1.28,1.28,0,0,0-.83-0.35A1.29,1.29,0,0,0,9.68,8L8,9.68a1.29,1.29,0,0,0-.35.84,1.28,1.28,0,0,0,.35.83l8.91,8.91a0.57,0.57,0,0,1,0,.83L8,30a1.29,1.29,0,0,0-.35.84,1.27,1.27,0,0,0,.35.83l1.66,1.66a1.29,1.29,0,0,0,.84.35,1.29,1.29,0,0,0,.83-0.35l8.91-8.91a0.57,0.57,0,0,1,.83,0L30,33.32a1.29,1.29,0,0,0,.84.35,1.27,1.27,0,0,0,.83-0.35l1.66-1.66a1.27,1.27,0,0,0,.35-0.83A1.29,1.29,0,0,0,33.32,30Zm0,0"/></svg>